<?xml version="1.0" standalone="no"?>
<!DOCTYPE svg PUBLIC "-//W3C//DTD SVG 20010904//EN"
 "http://www.w3.org/TR/2001/REC-SVG-20010904/DTD/svg10.dtd">
<svg version="1.0" xmlns="http://www.w3.org/2000/svg"
 width="700.000000pt" height="700.000000pt" viewBox="0 0 700.000000 700.000000"
 preserveAspectRatio="xMidYMid meet">
<metadata>
Created by potrace 1.11, written by Peter Selinger 2001-2013
</metadata>
<g transform="translate(0.000000,700.000000) scale(0.100000,-0.100000)"
fill="#000000" stroke="none">
<path d="M545 6985 c-245 -54 -432 -222 -513 -460 l-27 -80 0 -2945 0 -2945
27 -80 c76 -219 240 -379 458 -447 l75 -23 2935 0 2935 0 75 23 c218 68 382
228 458 447 l27 80 3 1578 2 1578 -23 -16 c-23 -15 -27 -11 -291 267 -147 155
-266 286 -264 292 2 6 100 106 218 223 231 226 242 233 326 220 l35 -6 -3 877
-3 877 -27 80 c-82 241 -270 408 -518 461 -94 20 -5813 19 -5905 -1z m6032
-3134 l271 -288 -62 -62 -62 -62 -273 292 -274 291 59 59 c32 32 61 59 64 59
4 0 128 -130 277 -289z m-237 -241 c112 -118 219 -231 238 -251 l33 -36 -531
-519 c-292 -285 -535 -520 -540 -522 -6 -2 -10 194 -10 544 l0 548 268 262
267 262 36 -36 c20 -20 127 -134 239 -252z m-1222 -1747 c-134 -131 -286 -280
-338 -330 l-96 -92 -268 283 c-148 156 -269 286 -270 290 0 3 271 272 604 597
l605 591 3 -550 2 -550 -242 -239z m-764 -267 c130 -137 236 -252 236 -255 0
-6 -702 -153 -706 -148 -1 1 37 163 84 360 l86 358 32 -33 c18 -18 138 -145
268 -282z"/>
</g>
</svg>
