<svg xmlns="http://www.w3.org/2000/svg">
    <symbol id="add" viewBox="0 0 256 256">
        <defs/><rect width="50" height="256" x="103" y="-256" ry="14" transform="rotate(90)"/><rect width="50" height="256" x="103" ry="14"/>
    </symbol>
    <symbol id="arrow_left" viewBox="0 0 256 256">
        <defs/><g transform="translate(49.11 104.65) scale(.58437)"><rect width="62.5" height="320" x="-34.08" y="-348.09" ry="17.5" transform="rotate(135)"/><rect width="62.5" height="320" x="28.09" y="-291.58" ry="17.5" transform="rotate(45)"/></g>
    </symbol>
    <symbol id="arrow_right" viewBox="0 0 256 256">
        <defs/><g transform="matrix(-.58437 0 0 .58437 206.89 104.65)"><rect width="62.5" height="320" x="-34.08" y="-348.09" ry="17.5" transform="rotate(135)"/><rect width="62.5" height="320" x="28.09" y="-291.58" ry="17.5" transform="rotate(45)"/></g>
    </symbol>
    <symbol id="backward10" viewBox="0 0 426.67 426.67">
        <defs/><path d="M213.33 85.33V0L106.67 106.67l106.66 106.66V128c70.4 0 128 57.6 128 128s-57.6 128-128 128-128-57.6-128-128H42.67c0 93.87 76.8 170.67 170.66 170.67S384 349.87 384 256 307.2 85.33 213.33 85.33z"/><path d="M236.8 318.93c4.27 1.07 7.47 2.14 12.8 2.14 5.33 0 9.6 0 12.8-2.14 3.2-2.13 6.4-4.26 9.6-7.46s5.33-7.47 6.4-11.74 2.13-10.66 2.13-17.06v-16c0-6.4-1.06-12.8-2.13-17.07s-4.27-8.53-6.4-11.73c-2.13-3.2-5.33-6.4-9.6-7.47-4.27-1.07-7.47-2.13-12.8-2.13-5.33 0-9.6 0-12.8 2.13-3.2 2.13-6.4 4.27-9.6 7.47s-5.33 7.46-6.4 11.73a74.21 74.21 0 00-2.13 17.07v16c0 6.4 1.06 12.8 2.13 17.06 1.07 4.27 4.27 8.54 6.4 11.74s5.33 6.4 9.6 7.46zm1.07-54.4c0-4.26 1.06-8.53 1.06-10.66 0-2.14 1.07-5.34 2.14-6.4 1.06-1.07 3.2-2.14 4.26-3.2 1.07-1.07 3.2-1.07 5.34-1.07s3.2 1.07 5.33 1.07 3.2 2.13 4.27 3.2c1.06 1.06 1.06 3.2 2.13 6.4 1.07 3.2 1.07 6.4 1.07 10.66v20.27c0 4.27-1.07 8.53-1.07 10.67s-1.07 5.33-2.13 6.4c-1.07 1.06-3.2 2.13-4.27 3.2-1.07 1.06-3.2 1.06-5.33 1.06s-3.2-1.06-5.34-1.06c-2.13 0-3.2-2.14-4.26-3.2-1.07-1.07-1.07-3.2-2.14-6.4s-1.06-6.4-1.06-10.67v-20.27zM189.87 320v-91.73h-2.14l-37.33 13.86v14.94l21.33-6.4V320z"/>
    </symbol>
    <symbol id="blwrt" viewBox="0 0 256 256">
        <defs/><g id="layer1"><g id="layer1-4"><path id="rect1429" d="M25 0C11.15 0 0 11.15 0 25v206c0 13.85 11.15 25 25 25h206c13.85 0 25-11.15 25-25V119.99c-.37.37-1.4 1.36-1.56 1.54-.53-.54-19.98-21-19.98-21s14.2-14 15.25-15.07a6.4 6.4 0 016.29-.93V25c0-13.85-11.15-25-25-25H25zm205.46 104.44l20.03 21.36-4.55 4.48-20.02-21.36 4.54-4.48zm-8.61 9.01l19.97 21-39.42 38.57v-40.54l19.45-19.03zm-25.69 25.13l.03 40.51-24.8 24.27-19.98-21 44.75-43.78zm-47.9 47.55l19.97 21c-3.15.54-26.28 5.38-26.28 5.38l6.3-26.38z"/></g></g>
    </symbol>
    <symbol id="book" viewBox="0 0 256 256">
        <defs/><path fill="none" d="M0 232h24v24H0z"/><path d="M200.88 2.44H55.12c-13.36 0-24.3 11.3-24.3 25.11v200.9c0 13.8 10.94 25.1 24.3 25.1h145.76c13.36 0 24.3-11.3 24.3-25.1V27.55c0-13.8-10.94-25.1-24.3-25.1zM55.12 27.55h60.73V128L85.5 109.17 55.12 128z"/>
    </symbol>
    <symbol id="chevro_v1" viewBox="0 0 256 256">
        <defs/><path fill-rule="evenodd" stroke="#fdffff" stroke-linecap="round" stroke-width="0" d="M82.64 251.4c-12.75-3.33-30.78-14.27-43.68-26.48-16.4-15.52-23.51-29.93-20.42-41.35.8-2.98 3.06-5.75 11.72-14.4 11.74-11.72 19.6-22.64 23.97-33.25 4.08-9.92 4.1-9.2-.48-18.14-4.09-8-4.29-8.22-10.28-11.48-7.85-4.29-10.4-6.79-13.68-13.46-2.5-5.1-2.65-5.92-2.28-13.1.3-6.04.87-8.6 2.68-12.12 3.19-6.21 7.03-9.32 10.57-8.56 7.18 1.55 13.66 6.5 23.7 18.1 2.95 3.4 4.05 4.09 6.57 4.09 3.8 0 6.27-1.7 8.1-5.56 2.33-4.9 1.8-9.52-2-17.65-10.27-21.91-26.17-38.7-46.15-48.71-3.51-1.76-6.23-3.65-6.05-4.2.56-1.67 5.16-2.52 10.69-1.96 13.32 1.34 27.5 6.73 40.2 15.3 7.67 5.16 21.52 18.52 27.5 26.52 2.56 3.45 6.5 7.04 11.71 10.68 4.31 3.02 8.7 6.11 9.76 6.88 2.28 1.64 5.19.99 5.92-1.34.29-.9 1.63-3.02 2.99-4.73 2-2.52 2.65-4.54 3.46-10.86C140.5 19.46 149.39 5 161.28 6.35c3.32.38 4 3.52 1.37 6.32-6.27 6.67-8.05 38.66-3 54.07 1.2 3.66 1.88 4.45 4.86 5.62 3.42 1.34 3.46 1.42 2.9 4.9a83.94 83.94 0 01-1.05 5.51c-.47 1.9-.27 1.97 5.52 1.97 12.32 0 36.2-3.76 53.42-8.4 4.51-1.2 9.1-1.98 10.19-1.7 2.77.7 3.54 4.76 1.61 8.5-2.15 4.18-8.46 12.2-12.13 15.43-6.77 5.94-26.4 13.8-40.88 16.37-8.92 1.58-11.3 2.72-13.15 6.28-1.55 3-9.24 29.36-9.24 31.67 0 .92 1.44 3.85 3.2 6.5 2.18 3.27 3.18 5.74 3.1 7.63-1 25.55-1.64 28.1-8.65 34.72-4.62 4.37-7.29 6.02-9.73 6.02-1.15 0-3.43 1.18-5.07 2.62-2.74 2.4-3.5 2.62-9.5 2.62-3.58 0-6.5.2-6.5.47 0 .26.78 2 1.74 3.89.96 1.88 1.74 4.61 1.74 6.07 0 3.05-2.65 6.14-5.26 6.14-2.79 0-7.6-2.3-8.56-4.1-1.1-2.06-3.01-15.72-2.35-16.79a.93.93 0 00-.28-1.28c-1.5-.93-9.3 19.24-13.23 34.23-1.97 7.5-3.35 9.4-7.75 10.62-4.06 1.13-4.6 1.09-11.96-.84z"/>
    </symbol>
    <symbol id="chevro_v2" viewBox="0 0 256 256">
        <defs/><circle cx="128" cy="128" r="128" fill="#00b4c4" fill-opacity="0" fill-rule="evenodd" stroke-linejoin="round" stroke-width="2.53"/><path fill-rule="evenodd" stroke-width="1.98" d="M4.34 3.1c-2.13 0-2.05.74 2.7 2.84 72.62 32 85.28 122.37 43.34 96.96-41.95-25.42-24.52 14.84-15.53 20.38 7.35 4.28 30.5 11.83 22.88 36.49-7.24 23.4-46.43 56.86-50.44 60.24 28.55-10.28 40.4-11.77 57.38-36.85a59.2 59.2 0 008.87-21.97c3.44-20.38-8.66-35.66-22.27-42.7-13.79-7.13-24.52-22.55 3.19-6.03 37.27 22.22 54.2-28.94-2.57-86.67 0 0-.85-5.01 17.14 13.39 15.77 16.13 21.11 27.33 39.4 61.69 6.6 12.41 19.3 6.54 24.99.34 6.2-6.75 7.1-20.19 7.84-27.07.67-10.71 1.27-16.2 2.22-23.95a56.97 56.97 0 016.46-19.2c1.96-3.35 4.13-1.5 2.02 1.54-9.03 13-7.27 66.23 9.6 77.22 4.92 3.2 16.13 1.82 23.34 1 13.94-1.56 34.25-4.75 39.06-5.46 7-1.02 7.07.12 4.83 1.34-7.9 4.3-13.54 5.07-39.46 14.44-8.67 3.14-13.98 10.76-17.1 17.55-6.38 13.87-8.53 37.91-8.53 37.91s-.45 3.98 1.73 6.42c2.2 2.45 4.68 3.62 7.04 9.07 1.2 2.78.5 5.02-.17 8.84-.32 1.88-1.56 4.6-1.14 7.11.87 5.14.58 12.14-8.23 19.37-2.61 2.14-9.8 3.63-9.8 3.63-7.38 2.68-28.58 1.42-42.48 2.36 0 0-10.93-.05-15.91 5.42-3.2 3.53-5.59 12.39-5.7 14.15 8.75-17.16 38.88-5.8 69.17-12.07 15.73-3.64 20.78-14.2 20.78-14.2 4.14-5.98 2.2-16.34 2.29-20.28 1.36-7.8 1.9-15.2 1.9-15.2.64-4.36-5.32-7.64-8.04-12.17-2.25-4.47-.55-31.87 10.04-46.42.39-.68 1.32-1.9 2.35-2.8a5.99 5.99 0 012.32-1.49c82.26-29.62 68.33-37.45 45.83-31.68a131.6 131.6 0 01-15.79 2.78s-35.49 3.5-50.11 4.54c-5.31.37-10.6-9.82-10.6-9.82-20.78-64.32 18.4-83.04.15-80.77-22.88 2.83-25.69 46.7-28.64 63.07-1.63 7.8-7.32 37.83-22.03 7.13C74.88 13 24.5 6.52 24.5 6.52S9.05 3.07 4.34 3.1z"/>
    </symbol>
    <symbol id="chevro_v3" viewBox="0 0 256 256">
        <defs/><path d="M53.58 85.4c-16.34 53.84 11.5 79.26 26.62 99.23 15.13 19.96 13.31 36.9 13.31 36.9l4.84 1.82c2.76-6.42 2.38-17.37 2.03-22.29a8.38 8.38 0 00-1.4-4.11c-6.3-9.35-12.73-32.9-12.73-32.9 15.13 6.66 50.83 3.03 50.83 3.03 0-3.02 1.2-6.65 1.2-6.65 0 38.72 22.4 39.93 35.7 41.75 13.32 1.81 27.84 38.72 27.84 38.72h6.05c-4.04-10.62-7.25-42.4-8.19-52.52a4.7 4.7 0 00-3.15-3.98c-22.11-7.8-16.86-38.73-11.05-44.54 6.06-6.05 18.16 2.42 18.16 2.42s-9.08-18.16-33.89-26.63c-24.8-8.47-61.11 7.26-83.5-45.98 0 0 7.26-8.48 12.7-6.06 0 0-3.62-12.7-13.9-7.26 0 0 10.88-35.1 52.63-39.33 41.75-4.23 42.36 24.2 42.36 24.2S184.88.69 137.08 3.1c-47.8 2.42-76.24 39.33-76.24 39.33S48.13 45.46 44.5 50.9C41.16 55.92 34.22 67.6 25.12 68a2.3 2.3 0 00-2.23 2.5c.5 5.5 2.34 17.64 8.9 16.7 8.47-1.2 21.79-1.8 21.79-1.8z" class="st0"/><path d="M125.58 228.2c3.02-13.59 9.8-29.67 12-34.72a.98.98 0 011.66-.23c1.88 2.34 5.16 5.05 7.68 6.99a3.52 3.52 0 01.26 5.37c-4.86 4.54-13.9 14-17.36 24.4zM63.86 222.14s-3.9-17.04.1-27.53c.83-2.17.54-4.6-.88-6.43-6.98-9.05-25.12-35.66-16.73-79.08 0 0-7.72 22.7-3.32 52.77 5.77 39.42 13.26 20.72 13.54 60.23zM134.05 23.07s13.31-3.63 18.76-.6c5.45 3.02 15.73 12.7 13.92 27.22 0 0-3.03-21.18-32.68-26.62z" class="st0"/><g><path d="M14.85 230c113.15-36.9 226.3 23 226.3 23s-135.54-39.33-226.3-23" class="st0"/></g>
    </symbol>
    <symbol id="cofee_hearth" viewBox="0 0 297 297">
        <defs/><path d="M56.35 70.57c5.61 0 10.16-4.55 10.16-10.15V26.9a10.16 10.16 0 00-20.31 0v33.5c0 5.61 4.55 10.16 10.15 10.16zM115 53.81c5.6 0 10.15-4.54 10.15-10.15v-33.5a10.15 10.15 0 00-20.31 0v33.5c0 5.61 4.54 10.16 10.15 10.16zM173.63 70.57c5.6 0 10.15-4.55 10.15-10.15V26.9a10.15 10.15 0 00-20.3 0v33.5c0 5.61 4.54 10.16 10.15 10.16zM137.16 166.7c-6.62 0-12 5.9-12 13.17a10.15 10.15 0 01-20.32 0c0-7.27-5.39-13.18-12.01-13.18-6.63 0-12.02 5.91-12.02 13.18 0 10.94 18.48 28.69 34.19 40.12 15.7-11.43 34.17-29.19 34.17-40.12 0-7.26-5.38-13.18-12-13.18z"/><path d="M248.77 117.28h-31.48V93.92c0-5.6-4.54-10.15-10.15-10.15H22.84c-5.6 0-10.15 4.55-10.15 10.15v167.54A35.58 35.58 0 0048.23 297h133.52a35.58 35.58 0 0035.54-35.54v-40.1h31.48a35.58 35.58 0 0035.54-35.54v-33a35.58 35.58 0 00-35.54-35.54zM144.04 222.33a204.69 204.69 0 01-23.46 18.5 10.15 10.15 0 01-11.16 0c-.48-.3-11.9-7.86-23.47-18.5-16.88-15.54-25.44-29.83-25.44-42.46 0-18.46 14.5-33.48 32.32-33.48 8.57 0 16.38 3.47 22.17 9.13a31.62 31.62 0 0122.17-9.13c17.81 0 32.31 15.02 32.31 33.48 0 12.63-8.56 26.91-25.44 42.46zM264 185.8c0 8.4-6.83 15.23-15.23 15.23h-31.48v-63.46h31.48c8.4 0 15.23 6.84 15.23 15.23v33z"/>
    </symbol>
    <symbol id="cross" viewBox="0 0 256 256">
        <defs/><g stroke-width="21.16" transform="scale(1.24999) rotate(45 146.1 84.3)"><rect width="50" height="256" x="103" y="-256" ry="14" transform="rotate(90)"/><rect width="50" height="256" x="103" ry="14"/></g>
    </symbol>
    <symbol id="trash" viewBox="0 0 24 24">
        <defs/><path d="M6 19c0 1.1.9 2 2 2h8a2 2 0 002-2V7H6v12zM19 4h-3.5l-1-1h-5l-1 1H5v2h14V4z"/><path fill="none" d="M0 0h24v24H0z"/>
    </symbol>
    <symbol id="discord" viewBox="0 0 24 24">
        <defs/><path d="M3.58 21.2h14.26l-.68-2.2 1.63 1.39 1.49 1.34L23 24V2.48A2.65 2.65 0 0020.35 0H3.58A2.55 2.55 0 001 2.48v16.24a2.5 2.5 0 002.58 2.48zM14.13 5.68l-.04.02.02-.02zM6.5 6.95c1.83-1.33 3.53-1.27 3.53-1.27l.14.14C7.92 6.35 6.9 7.35 6.9 7.35l.74-.33a11.42 11.42 0 019.38.4S16 6.48 13.9 5.88l.19-.18c.29 0 1.83.06 3.48 1.26 0 0 1.84 3.15 1.84 7.02-.06-.07-1.14 1.67-3.93 1.73 0 0-.47-.54-.8-1a4.04 4.04 0 002.23-1.4c-.53.33-1.02.53-1.42.73-.6.27-1.21.4-1.82.53-2.89.47-4.5-.31-6.04-.93l-.52-.27s.6.94 2.17 1.4l-.81 1c-2.79-.06-3.8-1.8-3.8-1.8 0-3.87 1.83-7.02 1.83-7.02z"/><path d="M14.3 12.77c.72 0 1.3-.6 1.3-1.34 0-.73-.58-1.33-1.3-1.33-.7 0-1.28.6-1.28 1.34 0 .73.58 1.33 1.29 1.33zM9.69 12.77c.71 0 1.29-.6 1.29-1.34 0-.73-.57-1.33-1.29-1.33-.71 0-1.29.6-1.29 1.34 0 .73.58 1.33 1.29 1.33z"/>
    </symbol>
    <symbol id="edit" viewBox="0 0 24 24">
        <defs/><path d="M3 17.25V21h3.75L17.81 9.94l-3.75-3.75L3 17.25zM20.71 7.04a1 1 0 000-1.41l-2.34-2.34a1 1 0 00-1.41 0l-1.83 1.83 3.75 3.75 1.83-1.83z"/><path fill="none" d="M0 0h24v24H0z"/>
    </symbol>
    <symbol id="eye" viewBox="0 0 95 95">
        <defs/><path d="M47.5 20.9C16.34 20.9 0 43.86 0 47.5c0 3.64 16.34 26.6 47.5 26.6S95 51.14 95 47.5c0-3.64-16.34-26.6-47.5-26.6zm0 47.06c-11.66 0-21.11-9.16-21.11-20.46s9.45-20.46 21.11-20.46S68.61 36.2 68.61 47.5 59.16 67.96 47.5 67.96zM58.05 47.5c0 5.65-4.72 10.23-10.55 10.23-5.83 0-10.55-4.58-10.55-10.23s4.72-10.23 10.55-10.23c3.15 0-1.93 8.1 0 10.23 1.64 1.8 10.55-2.6 10.55 0z"/>
    </symbol>
    <symbol id="folder" viewBox="0 0 256 256">
        <defs/><g transform="translate(0 -199.15)"><rect width="155.06" height="201.91" y="219.08" ry="10.67"/><rect width="256" height="168.33" y="266.9" ry="6.59"/></g>
    </symbol>
    <symbol id="forward10" viewBox="0 0 512 512">
        <defs/><path d="M409.6 307.2c0 84.48-69.12 153.6-153.6 153.6s-153.6-69.12-153.6-153.6S171.52 153.6 256 153.6V256l128-128L256 0v102.4c-112.64 0-204.8 92.16-204.8 204.8S143.36 512 256 512s204.8-92.16 204.8-204.8h-51.2z"/><path d="M226.56 384V273.92H224l-44.8 16.64v17.92l25.6-7.68V384zM313.6 276.48c-5.12-1.28-8.96-2.56-15.36-2.56s-11.52 0-15.36 2.56-7.68 5.12-11.52 8.96-6.4 8.96-7.68 14.08a89.07 89.07 0 00-2.56 20.48v19.2c0 7.68 1.28 15.36 2.56 20.48 1.28 5.12 5.12 10.24 7.68 14.08s6.4 7.68 11.52 8.96c5.12 1.28 8.96 2.56 15.36 2.56s11.52 0 15.36-2.56 7.68-5.12 11.52-8.96 6.4-8.96 7.68-14.08a89.07 89.07 0 002.56-20.48V320c0-7.68-1.28-15.36-2.56-20.48-1.28-5.12-5.12-10.24-7.68-14.08s-6.4-7.68-11.52-8.96zm0 65.28c0 5.12-1.28 10.24-1.28 12.8s-1.28 6.4-2.56 7.68c-1.28 1.28-3.84 2.56-5.12 3.84-1.28 1.28-3.84 1.28-6.4 1.28s-3.84-1.28-6.4-1.28c-2.56 0-3.84-2.56-5.12-3.84-1.28-1.28-1.28-3.84-2.56-7.68s-1.28-7.68-1.28-12.8v-24.32c0-5.12 1.28-10.24 1.28-12.8 0-2.56 1.28-6.4 2.56-7.68 1.28-1.28 3.84-2.56 5.12-3.84 1.28-1.28 3.84-1.28 6.4-1.28s3.84 1.28 6.4 1.28c2.56 0 3.84 2.56 5.12 3.84 1.28 1.28 1.28 3.84 2.56 7.68s1.28 7.68 1.28 12.8v24.32z"/>
    </symbol>
    <symbol id="hearth" viewBox="0 0 23.22 23.22">
        <defs/><path fill="#010002" d="M11.6 22c-22.64-12.36-6.26-27.72 0-17.37 6.28-10.35 22.66 5.01 0 17.37z"/>
    </symbol>
    <symbol id="home" viewBox="0 0 72.23 72.23">
        <defs/><path d="M70.85 32.01L38.77 4.54l-.31-.22-.25-.18-.38-.19c-.1-.04-.2-.1-.3-.13-.12-.05-.25-.07-.37-.1a4.18 4.18 0 00-.79-.13l-.25-.02c-.13 0-.25.02-.37.03l-.36.03c-.12.02-.23.06-.34.1-.12.02-.25.05-.37.1l-.3.14c-.13.06-.25.11-.37.18l-.28.2c-.09.06-.18.12-.27.2L1.38 32A3.9 3.9 0 001 37.6a4.09 4.09 0 005.68.37l2.77-2.37v23.18c0 5.46 4.53 9.9 10.1 9.9h6.03a4 4 0 004.03-3.96V46.09c0-1.1.92-2 2.04-2h8.93c1.12 0 2.04.9 2.04 2v18.18c0 .27.03.53.08.8l.1.46a4.01 4.01 0 003.95 3.15h5.92c5.58 0 10.11-4.44 10.11-9.9V35.59l2.77 2.37a4.07 4.07 0 005.68-.38 3.9 3.9 0 00-.38-5.57z"/>
    </symbol>
    <symbol id="instagram" viewBox="0 0 510 510">
        <defs/><path d="M459 0H51C22.95 0 0 22.95 0 51v408c0 28.05 22.95 51 51 51h408c28.05 0 51-22.95 51-51V51c0-28.05-22.95-51-51-51zM255 153c56.1 0 102 45.9 102 102s-45.9 102-102 102-102-45.9-102-102 45.9-102 102-102zM63.75 459C56.1 459 51 453.9 51 446.25V229.5h53.55C102 237.15 102 247.35 102 255c0 84.15 68.85 153 153 153s153-68.85 153-153c0-7.65 0-17.85-2.55-25.5H459v216.75c0 7.65-5.1 12.75-12.75 12.75H63.75zM459 114.75c0 7.65-5.1 12.75-12.75 12.75h-51c-7.65 0-12.75-5.1-12.75-12.75v-51c0-7.65 5.1-12.75 12.75-12.75h51C453.9 51 459 56.1 459 63.75v51z"/>
    </symbol>
    <symbol id="loading" viewBox="0 0 256 256">
        <defs/><path stroke-width="64.21" d="M128 0A128 128 0 000 128a128 128 0 00128 128 128 128 0 00128-128h-28a100 100 0 01-100 100A100 100 0 0128 128 100 100 0 01128 28V0z"/>
    </symbol>
    <symbol id="menu" viewBox="0 0 256 256">
        <defs/><g stroke="#000" stroke-linecap="round" stroke-linejoin="round" stroke-width="5.03" transform="translate(3 -18.18)"><rect width="244.97" height="34.62" x="2.51" y="218.86" ry="17.31"/><rect width="244.97" height="34.62" x="2.51" y="38.86" ry="17.31"/><rect width="244.97" height="34.62" x="2.51" y="128.86" ry="17.31"/></g>
    </symbol>
    <symbol id="pause" viewBox="0 0 256 256">
        <defs/><g transform="translate(3 186)"><rect width="50" height="256" x="40.65" y="-186" ry="14"/><rect width="50" height="256" x="159.35" y="-186" ry="14"/></g>
    </symbol>
    <symbol id="play" viewBox="0 0 256 256">
        <defs/><path stroke="#000" stroke-linecap="round" stroke-linejoin="round" d="M38.7 10l178.6 118L38.7 246z"/>
    </symbol>
    <symbol id="random" viewBox="0 0 24 24">
        <defs/><path fill="none" d="M0 0h24v24H0z"/><path d="M10.59 9.17L5.41 4 4 5.41l5.17 5.17 1.42-1.41zM14.5 4l2.04 2.04L4 18.59 5.41 20 17.96 7.46 20 9.5V4h-5.5zm.33 9.41l-1.41 1.41 3.13 3.13L14.5 20H20v-5.5l-2.04 2.04-3.13-3.13z"/>
    </symbol>
    <symbol id="replay" viewBox="0 0 510 510">
        <defs/><path d="M255 102V0L127.5 127.5 255 255V153c84.15 0 153 68.85 153 153s-68.85 153-153 153-153-68.85-153-153H51c0 112.2 91.8 204 204 204s204-91.8 204-204-91.8-204-204-204z"/>
    </symbol>
    <symbol id="rss" viewBox="0 0 1024 1024">
        <defs/><path d="M286.93 880.53c0 79.24-64.23 143.47-143.47 143.47S0 959.77 0 880.53c0-79.23 64.23-143.46 143.46-143.46s143.47 64.23 143.47 143.46z"/><path d="M0 0v186.24c462.64 0 837.76 375.12 837.76 837.76H1024C1024 458.7 565.3 0 0 0zm0 372.48v186.24c256.66 0 465.27 208.62 465.27 465.28h186.25c0-359.98-291.54-651.52-651.52-651.52z"/>
    </symbol>
    <symbol id="save" viewBox="0 0 24 24">
        <defs/><path fill="none" d="M0 0h24v24H0z"/><path d="M17 3H5a2 2 0 00-2 2v14a2 2 0 002 2h14a2 2 0 002-2V7l-4-4zm-5 16a3 3 0 110-6 3 3 0 010 6zm3-10H5V5h10v4z"/>
    </symbol>
    <symbol id="search" viewBox="0 0 129 129">
        <defs/><path stroke="none" stroke-width="7" d="M51.6 3C24.89 3 3 24.89 3 51.6c0 26.8 21.9 48.6 48.6 48.6 10.66 0 20.4-3.56 28.4-9.45l32.93 32.93a7.74 7.74 0 005.37 2.22c1.95 0 3.96-.8 5.38-2.22a7.65 7.65 0 000-10.75L90.74 79.99c5.82-8 9.46-17.79 9.46-28.39C100.2 24.8 78.4 3 51.6 3zm0 15.2c18.5 0 33.4 15 33.4 33.4A33.32 33.32 0 0151.6 85a33.4 33.4 0 110-66.8z" color="#000" font-family="sans-serif" font-weight="400" overflow="visible" style="line-height:normal;font-variant-ligatures:normal;font-variant-position:normal;font-variant-caps:normal;font-variant-numeric:normal;font-variant-alternates:normal;font-feature-settings:normal;text-indent:0;text-align:start;text-decoration-line:none;text-decoration-style:solid;text-decoration-color:#000;text-transform:none;text-orientation:mixed;white-space:normal;shape-padding:0;isolation:auto;mix-blend-mode:normal;solid-color:#000;solid-opacity:1"/>
    </symbol>
    <symbol id="send" viewBox="0 0 24 24">
        <defs/><path d="M2.01 21L23 12 2.01 3 2 10l15 2-15 2z"/><path fill="none" d="M0 0h24v24H0z"/>
    </symbol>
    <symbol id="settings" viewBox="0 0 268.76 268.76">
        <defs/><path fill-rule="evenodd" d="M267.92 119.46c-.42-3.78-4.83-6.62-8.64-6.62-12.31 0-23.24-7.23-27.82-18.41a29.93 29.93 0 017.51-33.23 7.46 7.46 0 00.82-10.13c-6.3-8-13.47-15.24-21.3-21.5a7.48 7.48 0 00-10.2.82c-8.01 8.87-22.4 12.17-33.52 7.53a29.85 29.85 0 01-18.15-29.18 7.46 7.46 0 00-6.6-7.85A134.16 134.16 0 00119.8.81a7.48 7.48 0 00-6.65 7.7 29.9 29.9 0 01-18.4 28.67c-10.99 4.48-25.28 1.21-33.27-7.58a7.5 7.5 0 00-10.14-.85 133.48 133.48 0 00-21.74 21.5 7.48 7.48 0 00.8 10.2A29.78 29.78 0 0137.9 94c-4.63 11.04-16.1 18.16-29.24 18.16a7.3 7.3 0 00-7.76 6.6 134.62 134.62 0 00-.06 30.56c.43 3.8 4.97 6.6 8.82 6.6 11.7-.3 22.93 6.95 27.65 18.42a29.88 29.88 0 01-7.52 33.23 7.47 7.47 0 00-.81 10.13 133.46 133.46 0 0021.25 21.5 7.47 7.47 0 0010.23-.8c8.04-8.9 22.43-12.19 33.5-7.54a29.8 29.8 0 0118.18 29.17 7.46 7.46 0 006.6 7.85 133.57 133.57 0 0030.23.08 7.48 7.48 0 006.66-7.7A29.87 29.87 0 01174 231.6c11.06-4.51 25.29-1.2 33.28 7.58a7.5 7.5 0 0010.14.84 133.79 133.79 0 0021.74-21.49 7.46 7.46 0 00-.8-10.21 29.78 29.78 0 01-7.53-33.53 30.09 30.09 0 0127.5-18.21l1.66.04a7.48 7.48 0 007.86-6.59 134.5 134.5 0 00.06-30.56zM134.59 179.5a44.87 44.87 0 01-44.82-44.82 44.87 44.87 0 0144.83-44.83 44.87 44.87 0 0144.82 44.83 44.87 44.87 0 01-44.82 44.82z" clip-rule="evenodd"/>
    </symbol>
    <symbol id="share" viewBox="0 0 24 24">
        <defs/><path fill="none" d="M0 0h24v24H0z"/><path d="M18 16.08c-.76 0-1.44.3-1.96.77L8.91 12.7c.05-.23.09-.46.09-.7s-.04-.47-.09-.7l7.05-4.11A2.99 2.99 0 0021 5a3 3 0 10-5.91.7L8.04 9.81A2.99 2.99 0 003 12a3 3 0 005.04 2.19l7.12 4.16A2.92 2.92 0 1018 16.08z"/>
    </symbol>
    <symbol id="to_markdown" viewBox="0 0 256 256">
        <defs/><g transform="translate(0 -41)"><g style="line-height:1.25;-inkscape-font-specification:'sans-serif, Bold';font-variant-ligatures:normal;font-variant-caps:normal;font-variant-numeric:normal;font-feature-settings:normal;text-align:start"><path d="M18.2 107.31h40.49l28.1 66.03 28.26-66.03h40.4V230.7h-30.07v-90.24l-28.43 66.52H76.79l-28.43-66.52v90.24H18.2z" aria-label="M" font-family="sans-serif" font-size="40" font-weight="700" letter-spacing="0" word-spacing="0"/></g><path stroke-width=".13" d="M199.25 107.31v75.18h-19.28l28.92 48.2 28.91-48.2h-19.27v-75.18z"/><rect width="219.61" height="4.54" x="18.2" y="91.3" stroke-width="5.5" ry="2.27"/><rect width="219.61" height="4.54" x="18.2" y="239.63" stroke-width="5.5" ry="2.27"/></g>
    </symbol>
    <symbol id="twitter" viewBox="0 0 510 510">
        <defs/><path d="M459 0H51C22.95 0 0 22.95 0 51v408c0 28.05 22.95 51 51 51h408c28.05 0 51-22.95 51-51V51c0-28.05-22.95-51-51-51zm-58.65 186.15c-2.55 117.3-76.5 198.9-188.7 204-45.9 2.55-79.05-12.75-109.65-30.6 33.15 5.1 76.5-7.65 99.45-28.05-33.15-2.55-53.55-20.4-63.75-48.45 10.2 2.55 20.4 0 28.05 0-30.6-10.2-51-28.05-53.55-68.85 7.65 5.1 17.85 7.65 28.05 7.65-22.95-12.75-38.25-61.2-20.4-91.8 33.15 35.7 73.95 66.3 140.25 71.4-17.85-71.4 79.05-109.65 117.3-61.2 17.85-2.55 30.6-10.2 43.35-15.3-5.1 17.85-15.3 28.05-28.05 38.25 12.75-2.55 25.5-5.1 35.7-10.2-2.55 12.75-15.3 22.95-28.05 33.15z"/>
    </symbol>
    <symbol id="user" viewBox="0 0 510 510">
        <defs/><path d="M255 0C114.75 0 0 114.75 0 255s114.75 255 255 255 255-114.75 255-255S395.25 0 255 0zm0 76.5c43.35 0 76.5 33.15 76.5 76.5s-33.15 76.5-76.5 76.5-76.5-33.15-76.5-76.5 33.15-76.5 76.5-76.5zm0 362.1c-63.75 0-119.85-33.15-153-81.6 0-51 102-79.05 153-79.05S408 306 408 357c-33.15 48.45-89.25 81.6-153 81.6z"/>
    </symbol>
    <symbol id="arrow_top" viewBox="0 0 256 256">
        <defs/><g transform="matrix(0 .58437 .58437 0 104.648 49.11)"><rect width="62.499" height="319.997" x="-34.078" y="-348.089" ry="17.5" transform="rotate(135)"/><rect width="62.499" height="319.997" x="28.092" y="-291.575" ry="17.5" transform="rotate(45)"/></g>
    </symbol>
    <symbol id="arrow_bottom" viewBox="0 0 256 256">
        <defs/><g transform="matrix(0 -.58437 -.58437 0 151.352 206.89)"><rect width="62.499" height="319.997" x="-34.078" y="-348.089" ry="17.5" transform="rotate(135)"/><rect width="62.499" height="319.997" x="28.092" y="-291.575" ry="17.5" transform="rotate(45)"/></g>
    </symbol>
    <symbol id="fullscreen" viewBox="0 0 256 256">
        <defs/><path fill="none" d="M0 232h24v24H0z"/><path d="M36.57 164.57H0V256h91.43v-36.57H36.57zM0 91.43h36.57V36.57h54.86V0H0zm219.43 128h-54.86V256H256v-91.43h-36.57zM164.57 0v36.57h54.86v54.86H256V0z"/>
    </symbol>
    <symbol id="fullscreen_exit" viewBox="0 0 256 256">
        <defs/><path fill="none" d="M0 232h24v24H0z"/><path d="M0 201.14h54.86V256h36.57v-91.43H0zM54.86 54.86H0v36.57h91.43V0H54.86zM164.57 256h36.57v-54.86H256v-36.57h-91.43zm36.57-201.14V0h-36.57v91.43H256V54.86z"/>
    </symbol>
    <symbol id="newspaper" viewBox="0 0 256 256">
        <defs/><path d="M68.47 0C30.74 0 0 30.74 0 68.47v119.06C0 225.26 30.74 256 68.47 256h119.06c37.73 0 68.47-30.74 68.47-68.47V68.47C256 30.74 225.26 0 187.53 0zm0 23.3h119.06a44.82 44.82 0 0145.18 45.17v119.06a44.82 44.82 0 01-45.18 45.18H68.47a44.82 44.82 0 01-45.18-45.18V68.47A44.82 44.82 0 0168.47 23.3z" color="#000" font-family="sans-serif" font-weight="400" overflow="visible" style="line-height:normal;font-variant-ligatures:normal;font-variant-position:normal;font-variant-caps:normal;font-variant-numeric:normal;font-variant-alternates:normal;font-feature-settings:normal;text-indent:0;text-align:start;text-decoration-line:none;text-decoration-style:solid;text-decoration-color:#000;text-transform:none;text-orientation:mixed;white-space:normal;shape-padding:0;isolation:auto;mix-blend-mode:normal;solid-color:#000;solid-opacity:1"/><g fill-opacity=".99" transform="translate(-43.93 -7.61)"><rect width="78.42" height="15.88" x="88.79" y="54.92" ry="7.94"/><rect width="78.42" height="15.88" x="88.79" y="84.02" ry="7.94"/><rect width="78.42" height="15.88" x="88.79" y="142.23" ry="7.94"/><rect width="78.42" height="15.88" x="88.79" y="171.33" ry="7.94"/><rect width="78.42" height="15.88" x="88.79" y="200.44" ry="7.94"/><rect width="78.42" height="15.88" x="88.79" y="113.12" ry="7.94"/></g><g transform="translate(43.93 -.54)"><rect width="78.42" height="15.88" x="88.79" y="47.84" fill-opacity=".99" ry="7.94"/><rect width="78.42" height="15.88" x="88.79" y="164.26" fill-opacity=".99" ry="7.94"/><rect width="78.42" height="15.88" x="88.79" y="193.37" fill-opacity=".99" ry="7.94"/><path d="M100.35 68.58c-6.3 0-11.56 5.27-11.56 11.56v67c0 6.3 5.26 11.56 11.56 11.56h55.3c6.3 0 11.56-5.27 11.56-11.56v-67c0-6.3-5.26-11.56-11.56-11.56zm.97 12.53h53.36v65.06h-53.36z" color="#000" font-family="sans-serif" font-weight="400" overflow="visible" style="line-height:normal;font-variant-ligatures:normal;font-variant-position:normal;font-variant-caps:normal;font-variant-numeric:normal;font-variant-alternates:normal;font-feature-settings:normal;text-indent:0;text-align:start;text-decoration-line:none;text-decoration-style:solid;text-decoration-color:#000;text-transform:none;text-orientation:mixed;white-space:normal;shape-padding:0;isolation:auto;mix-blend-mode:normal;solid-color:#000;solid-opacity:1"/></g>
    </symbol>
    <symbol id="note" viewBox="0 0 256 256">
        <defs/><path d="M68.47 0C30.74 0 0 30.74 0 68.47v119.06C0 225.26 30.74 256 68.47 256h119.06c37.73 0 68.47-30.74 68.47-68.47V68.47C256 30.74 225.26 0 187.53 0zm0 23.3h119.06a44.82 44.82 0 0145.18 45.17v119.06a44.82 44.82 0 01-45.18 45.18H68.47a44.82 44.82 0 01-45.18-45.18V68.47A44.82 44.82 0 0168.47 23.3z" color="#000" font-family="sans-serif" font-weight="400" overflow="visible" style="line-height:normal;font-variant-ligatures:normal;font-variant-position:normal;font-variant-caps:normal;font-variant-numeric:normal;font-variant-alternates:normal;font-feature-settings:normal;text-indent:0;text-align:start;text-decoration-line:none;text-decoration-style:solid;text-decoration-color:#000;text-transform:none;text-orientation:mixed;white-space:normal;shape-padding:0;isolation:auto;mix-blend-mode:normal;solid-color:#000;solid-opacity:1"/><g fill-opacity=".99" transform="translate(1.27 -3.57)"><rect width="166.28" height="15.88" x="43.59" y="50.87" ry="7.94"/><rect width="166.28" height="15.88" x="43.59" y="79.98" ry="7.94"/><rect width="166.28" height="15.88" x="43.59" y="138.19" ry="7.94"/><rect width="166.28" height="15.88" x="43.59" y="167.29" ry="7.94"/><rect width="166.28" height="15.88" x="43.59" y="196.39" ry="7.94"/><rect width="166.28" height="15.88" x="43.59" y="109.08" ry="7.94"/></g>
    </symbol>
    <symbol id="presentation" viewBox="0 0 256 256">
        <defs/><g fill-opacity=".99" transform="translate(-7.28 -26.63)"><rect width="93.31" height="29.45" x="-207.9" y="156.77" ry="5.27" transform="matrix(.00931 -.99996 1 .00092 0 0)"/><rect width="106.91" height="29.45" x="-207.87" y="191.26" ry="5.27" transform="matrix(.00813 -.99997 1 .00105 0 0)"/><rect width="82.73" height="29.45" x="-207.92" y="122.27" ry="5.27" transform="matrix(.0105 -.99994 1 .00081 0 0)"/><rect width="63.83" height="29.45" x="-207.95" y="88.18" ry="5.27" transform="matrix(.0136 -.9999 1 .00063 0 0)"/><rect width="48.72" height="29.45" x="-207.96" y="54.32" ry="5.27" transform="matrix(.01783 -.99984 1 .00048 0 0)"/></g><path d="M68.47 0C30.74 0 0 30.74 0 68.47v119.06C0 225.26 30.74 256 68.47 256h119.06c37.73 0 68.47-30.74 68.47-68.47V68.47C256 30.74 225.26 0 187.53 0zm0 23.3h119.06a44.82 44.82 0 0145.18 45.17v119.06a44.82 44.82 0 01-45.18 45.18H68.47a44.82 44.82 0 01-45.18-45.18V68.47A44.82 44.82 0 0168.47 23.3z" color="#000" font-family="sans-serif" font-weight="400" overflow="visible" style="line-height:normal;font-variant-ligatures:normal;font-variant-position:normal;font-variant-caps:normal;font-variant-numeric:normal;font-variant-alternates:normal;font-feature-settings:normal;text-indent:0;text-align:start;text-decoration-line:none;text-decoration-style:solid;text-decoration-color:#000;text-transform:none;text-orientation:mixed;white-space:normal;shape-padding:0;isolation:auto;mix-blend-mode:normal;solid-color:#000;solid-opacity:1"/>
    </symbol>
</svg>