<?xml version="1.0" encoding="UTF-8" standalone="no"?>
<svg
   xmlns:dc="http://purl.org/dc/elements/1.1/"
   xmlns:cc="http://creativecommons.org/ns#"
   xmlns:rdf="http://www.w3.org/1999/02/22-rdf-syntax-ns#"
   xmlns:svg="http://www.w3.org/2000/svg"
   xmlns="http://www.w3.org/2000/svg"
   xmlns:sodipodi="http://sodipodi.sourceforge.net/DTD/sodipodi-0.dtd"
   xmlns:inkscape="http://www.inkscape.org/namespaces/inkscape"
   sodipodi:docname="get-it-on-firefox.svg"
   inkscape:version="1.0 (4035a4fb49, 2020-05-01)"
   id="svg8"
   version="1.1"
   viewBox="0 0 564 168"
   height="168mm"
   width="564mm">
  <defs
     id="defs2">
    <rect
       id="rect1168"
       height="67.384677"
       width="310.06449"
       y="72.098304"
       x="172.74642" />
    <rect
       id="rect1158"
       height="55.82342"
       width="325.31883"
       y="93.655275"
       x="189.34522" />
    <linearGradient
       gradientUnits="userSpaceOnUse"
       gradientTransform="scale(0.98374383,1.0165248)"
       id="a"
       x1="441.98419"
       y1="75.63131"
       x2="62.126281"
       y2="454.26937">
      <stop
         offset=".05"
         stop-color="#fff44f"
         id="stop979" />
      <stop
         offset=".37"
         stop-color="#ff980e"
         id="stop981" />
      <stop
         offset=".53"
         stop-color="#ff3647"
         id="stop983" />
      <stop
         offset=".7"
         stop-color="#e31587"
         id="stop985" />
    </linearGradient>
    <radialGradient
       gradientUnits="userSpaceOnUse"
       fy="61.159757"
       fx="392.80674"
       id="b"
       cx="392.80674"
       cy="61.159757"
       r="554.14583"
       gradientTransform="scale(1.1087373,0.9019269)">
      <stop
         offset=".13"
         stop-color="#ffbd4f"
         id="stop988" />
      <stop
         offset=".28"
         stop-color="#ff980e"
         id="stop990" />
      <stop
         offset=".47"
         stop-color="#ff3750"
         id="stop992" />
      <stop
         offset=".78"
         stop-color="#eb0878"
         id="stop994" />
      <stop
         offset=".86"
         stop-color="#e50080"
         id="stop996" />
    </radialGradient>
    <radialGradient
       gradientUnits="userSpaceOnUse"
       fy="290.17784"
       fx="226.56298"
       id="c"
       cx="226.56298"
       cy="290.17784"
       r="554.14583"
       gradientTransform="scale(1.1087373,0.9019269)">
      <stop
         offset=".3"
         stop-color="#960e18"
         id="stop999" />
      <stop
         offset=".35"
         stop-color="#b11927"
         stop-opacity=".74"
         id="stop1001" />
      <stop
         offset=".43"
         stop-color="#db293d"
         stop-opacity=".34"
         id="stop1003" />
      <stop
         offset=".5"
         stop-color="#f5334b"
         stop-opacity=".09"
         id="stop1005" />
      <stop
         offset=".53"
         stop-color="#ff3750"
         stop-opacity="0"
         id="stop1007" />
    </radialGradient>
    <radialGradient
       gradientUnits="userSpaceOnUse"
       fy="-17.973478"
       fx="395.44365"
       gradientTransform="scale(0.76747288,1.3029776)"
       id="d"
       cx="395.44365"
       cy="-17.973478"
       r="210.2099">
      <stop
         offset=".13"
         stop-color="#fff44f"
         id="stop1010" />
      <stop
         offset=".53"
         stop-color="#ff980e"
         id="stop1012" />
    </radialGradient>
    <radialGradient
       gradientUnits="userSpaceOnUse"
       fy="373.24011"
       fx="206.27053"
       gradientTransform="scale(0.95519576,1.0469058)"
       id="e"
       cx="206.27053"
       cy="373.24011"
       r="223.49659">
      <stop
         offset=".35"
         stop-color="#3a8ee6"
         id="stop1015" />
      <stop
         offset=".67"
         stop-color="#9059ff"
         id="stop1017" />
      <stop
         offset="1"
         stop-color="#c139e6"
         id="stop1019" />
    </radialGradient>
    <radialGradient
       gradientUnits="userSpaceOnUse"
       fy="200.9019"
       fx="271.62092"
       id="f"
       cx="271.62092"
       cy="200.9019"
       r="131.86298"
       gradientTransform="scale(0.95519576,1.0469058)">
      <stop
         offset=".21"
         stop-color="#9059ff"
         stop-opacity="0"
         id="stop1022" />
      <stop
         offset=".97"
         stop-color="#6e008b"
         stop-opacity=".6"
         id="stop1024" />
    </radialGradient>
    <radialGradient
       gradientUnits="userSpaceOnUse"
       fy="36.806651"
       fx="240.61284"
       gradientTransform="scale(0.99822767,1.0017755)"
       id="g"
       cx="240.61284"
       cy="36.806651"
       r="170.02094">
      <stop
         offset=".1"
         stop-color="#ffe226"
         id="stop1027" />
      <stop
         offset=".79"
         stop-color="#ff7139"
         id="stop1029" />
    </radialGradient>
    <radialGradient
       gradientUnits="userSpaceOnUse"
       fy="-81.709216"
       fx="362.075"
       gradientTransform="scale(1.0914501,0.91621229)"
       id="h"
       cx="362.075"
       cy="-81.709216"
       r="742.38693">
      <stop
         offset=".11"
         stop-color="#fff44f"
         id="stop1032" />
      <stop
         offset=".46"
         stop-color="#ff980e"
         id="stop1034" />
      <stop
         offset=".72"
         stop-color="#ff3647"
         id="stop1036" />
      <stop
         offset=".9"
         stop-color="#e31587"
         id="stop1038" />
    </radialGradient>
    <radialGradient
       gradientUnits="userSpaceOnUse"
       fy="-41.588268"
       fx="475.58807"
       id="i"
       cx="475.58807"
       cy="-41.588268"
       r="779.90861"
       gradientTransform="scale(0.68818401,1.4530997)">
      <stop
         offset="0"
         stop-color="#fff44f"
         id="stop1041" />
      <stop
         offset=".3"
         stop-color="#ff980e"
         id="stop1043" />
      <stop
         offset=".57"
         stop-color="#ff3647"
         id="stop1045" />
      <stop
         offset=".74"
         stop-color="#e31587"
         id="stop1047" />
    </radialGradient>
    <radialGradient
       gradientUnits="userSpaceOnUse"
       fy="99.00617"
       fx="239.79737"
       gradientTransform="scale(1.008901,0.9911775)"
       id="j"
       cx="239.79737"
       cy="99.00617"
       r="461.1138">
      <stop
         offset=".14"
         stop-color="#fff44f"
         id="stop1050" />
      <stop
         offset=".48"
         stop-color="#ff980e"
         id="stop1052" />
      <stop
         offset=".66"
         stop-color="#ff3647"
         id="stop1054" />
      <stop
         offset=".9"
         stop-color="#e31587"
         id="stop1056" />
    </radialGradient>
    <radialGradient
       gradientUnits="userSpaceOnUse"
       fy="132.0125"
       fx="343.03801"
       gradientTransform="scale(1.0572577,0.94584319)"
       id="k"
       cx="343.03801"
       cy="132.0125"
       r="528.89329">
      <stop
         offset=".09"
         stop-color="#fff44f"
         id="stop1059" />
      <stop
         offset=".63"
         stop-color="#ff980e"
         id="stop1061" />
    </radialGradient>
    <linearGradient
       gradientUnits="userSpaceOnUse"
       gradientTransform="scale(0.98373973,1.016529)"
       id="l"
       x1="406.61137"
       y1="68.31199"
       x2="104.09252"
       y2="409.86551">
      <stop
         offset=".17"
         stop-color="#fff44f"
         stop-opacity=".8"
         id="stop1064" />
      <stop
         offset=".6"
         stop-color="#fff44f"
         stop-opacity="0"
         id="stop1066" />
    </linearGradient>
  </defs>
  <sodipodi:namedview
     inkscape:window-maximized="1"
     inkscape:window-y="28"
     inkscape:window-x="1920"
     inkscape:window-height="974"
     inkscape:window-width="1920"
     showgrid="false"
     inkscape:document-rotation="0"
     inkscape:current-layer="layer1"
     inkscape:document-units="mm"
     inkscape:cy="242.87925"
     inkscape:cx="1548.8117"
     inkscape:zoom="0.24748737"
     inkscape:pageshadow="2"
     inkscape:pageopacity="0.0"
     borderopacity="1.0"
     bordercolor="#666666"
     pagecolor="#ffffff"
     id="base" />
  <metadata
     id="metadata5">
    <rdf:RDF>
      <cc:Work
         rdf:about="">
        <dc:format>image/svg+xml</dc:format>
        <dc:type
           rdf:resource="http://purl.org/dc/dcmitype/StillImage" />
        <dc:title></dc:title>
      </cc:Work>
    </rdf:RDF>
  </metadata>
  <g
     id="layer1"
     inkscape:groupmode="layer"
     inkscape:label="Calque 1">
    <rect
       ry="19.110165"
       y="2.0221176"
       x="2.0221252"
       height="163.95576"
       width="559.95575"
       id="rect1154"
       style="fill:#000000;fill-opacity:1;stroke:#aaaaaa;stroke-width:4.04424;stroke-miterlimit:4;stroke-dasharray:none;stroke-opacity:1" />
    <g
       transform="matrix(0.24912204,0,0,0.24912204,26.986273,22.217572)"
       id="g1152">
      <path
         style="fill:url(#a)"
         id="shape-base"
         d="m 478.711,166.353 c -10.445,-25.124 -31.6,-52.248 -48.212,-60.821 13.52,26.505 21.345,53.093 24.335,72.936 0,0.039 0.015,0.136 0.047,0.4 C 427.706,111.135 381.627,83.823 344,24.355 c -1.9,-3.007 -3.805,-6.022 -5.661,-9.2 a 73.716,73.716 0 0 1 -2.646,-4.972 43.7,43.7 0 0 1 -3.593,-9.506 0.626,0.626 0 0 0 -0.546,-0.644 0.818,0.818 0 0 0 -0.451,0 c -0.034,0.012 -0.084,0.051 -0.12,0.065 -0.053,0.021 -0.12,0.069 -0.176,0.1 0.027,-0.036 0.083,-0.117 0.1,-0.136 -60.37,35.356 -80.85,100.761 -82.732,133.484 a 120.249,120.249 0 0 0 -66.142,25.488 71.355,71.355 0 0 0 -6.225,-4.7 111.338,111.338 0 0 1 -0.674,-58.732 c -24.688,11.241 -43.89,29.01 -57.85,44.7 h -0.111 c -9.527,-12.067 -8.855,-51.873 -8.312,-60.184 -0.114,-0.515 -7.107,3.63 -8.023,4.255 a 175.073,175.073 0 0 0 -23.486,20.12 210.478,210.478 0 0 0 -22.442,26.913 c 0,0.012 -0.007,0.026 -0.011,0.038 0,-0.013 0.007,-0.026 0.011,-0.038 a 202.838,202.838 0 0 0 -32.247,72.805 c -0.115,0.521 -0.212,1.061 -0.324,1.586 -0.452,2.116 -2.08,12.7 -2.365,15 -0.022,0.177 -0.032,0.347 -0.053,0.524 a 229.066,229.066 0 0 0 -3.9,33.157 c 0,0.41 -0.025,0.816 -0.025,1.227 C 16,388.418 123.6,496 256.324,496 c 118.865,0 217.56,-86.288 236.882,-199.63 0.407,-3.076 0.733,-6.168 1.092,-9.271 4.777,-41.21 -0.53,-84.525 -15.587,-120.746 z M 201.716,354.447 c 1.124,0.537 2.18,1.124 3.334,1.639 0.048,0.033 0.114,0.07 0.163,0.1 a 126.191,126.191 0 0 1 -3.497,-1.739 z m 55.053,-144.93 z m 198.131,-30.59 -0.032,-0.233 c 0.012,0.085 0.027,0.174 0.04,0.259 z"
         fill="url(#a)" />
      <path
         style="fill:url(#b)"
         id="body-outer-ring"
         d="m 478.711,166.353 c -10.445,-25.124 -31.6,-52.248 -48.212,-60.821 13.52,26.505 21.345,53.093 24.335,72.936 0,-0.058 0.011,0.048 0.036,0.226 0.012,0.085 0.027,0.174 0.04,0.259 22.675,61.47 10.322,123.978 -7.479,162.175 -27.539,59.1 -94.215,119.67 -198.576,116.716 C 136.1,454.651 36.766,370.988 18.223,261.41 c -3.379,-17.28 0,-26.054 1.7,-40.084 -2.071,10.816 -2.86,13.94 -3.9,33.157 0,0.41 -0.025,0.816 -0.025,1.227 C 16,388.418 123.6,496 256.324,496 c 118.865,0 217.56,-86.288 236.882,-199.63 0.407,-3.076 0.733,-6.168 1.092,-9.271 4.777,-41.21 -0.53,-84.525 -15.587,-120.746 z"
         fill="url(#b)" />
      <path
         style="fill:url(#c)"
         id="body-outer-ring-shadow"
         d="m 478.711,166.353 c -10.445,-25.124 -31.6,-52.248 -48.212,-60.821 13.52,26.505 21.345,53.093 24.335,72.936 0,-0.058 0.011,0.048 0.036,0.226 0.012,0.085 0.027,0.174 0.04,0.259 22.675,61.47 10.322,123.978 -7.479,162.175 -27.539,59.1 -94.215,119.67 -198.576,116.716 C 136.1,454.651 36.766,370.988 18.223,261.41 c -3.379,-17.28 0,-26.054 1.7,-40.084 -2.071,10.816 -2.86,13.94 -3.9,33.157 0,0.41 -0.025,0.816 -0.025,1.227 C 16,388.418 123.6,496 256.324,496 c 118.865,0 217.56,-86.288 236.882,-199.63 0.407,-3.076 0.733,-6.168 1.092,-9.271 4.777,-41.21 -0.53,-84.525 -15.587,-120.746 z"
         fill="url(#c)" />
      <path
         style="fill:url(#d)"
         id="tail-tip"
         d="m 361.922,194.6 c 0.524,0.368 1,0.734 1.493,1.1 a 130.706,130.706 0 0 0 -22.31,-29.112 C 266.4,91.892 321.516,4.626 330.811,0.194 c 0.027,-0.036 0.083,-0.117 0.1,-0.136 -60.37,35.356 -80.85,100.761 -82.732,133.484 2.8,-0.194 5.592,-0.429 8.442,-0.429 45.051,0 84.289,24.77 105.301,61.487 z"
         fill="url(#d)" />
      <path
         style="fill:url(#e)"
         id="globe-base"
         d="m 256.772,209.514 c -0.393,5.978 -21.514,26.593 -28.9,26.593 -68.339,0 -79.432,41.335 -79.432,41.335 3.027,34.81 27.261,63.475 56.611,78.643 1.339,0.692 2.694,1.317 4.05,1.935 a 132.768,132.768 0 0 0 7.059,2.886 106.743,106.743 0 0 0 31.271,6.031 c 119.78,5.618 142.986,-143.194 56.545,-186.408 22.137,-3.85 45.115,5.053 57.947,14.067 -21.012,-36.714 -60.25,-61.484 -105.3,-61.484 -2.85,0 -5.641,0.235 -8.442,0.429 a 120.249,120.249 0 0 0 -66.142,25.488 c 3.664,3.1 7.8,7.244 16.514,15.828 16.302,16.067 58.13,32.705 58.219,34.657 z"
         fill="url(#e)" />
      <path
         style="fill:url(#f)"
         id="globe-shadow"
         d="m 256.772,209.514 c -0.393,5.978 -21.514,26.593 -28.9,26.593 -68.339,0 -79.432,41.335 -79.432,41.335 3.027,34.81 27.261,63.475 56.611,78.643 1.339,0.692 2.694,1.317 4.05,1.935 a 132.768,132.768 0 0 0 7.059,2.886 106.743,106.743 0 0 0 31.271,6.031 c 119.78,5.618 142.986,-143.194 56.545,-186.408 22.137,-3.85 45.115,5.053 57.947,14.067 -21.012,-36.714 -60.25,-61.484 -105.3,-61.484 -2.85,0 -5.641,0.235 -8.442,0.429 a 120.249,120.249 0 0 0 -66.142,25.488 c 3.664,3.1 7.8,7.244 16.514,15.828 16.302,16.067 58.13,32.705 58.219,34.657 z"
         fill="url(#f)" />
      <path
         style="fill:url(#g)"
         id="ear"
         d="m 170.829,151.036 a 244.042,244.042 0 0 1 4.981,3.3 111.338,111.338 0 0 1 -0.674,-58.732 c -24.688,11.241 -43.89,29.01 -57.85,44.7 1.155,-0.033 36.014,-0.66 53.543,10.732 z"
         fill="url(#g)" />
      <path
         style="fill:url(#h)"
         id="body"
         d="m 18.223,261.41 c 18.543,109.578 117.877,193.241 230.632,196.434 104.361,2.954 171.037,-57.62 198.576,-116.716 17.8,-38.2 30.154,-100.7 7.479,-162.175 l -0.008,-0.026 -0.032,-0.233 c -0.025,-0.178 -0.04,-0.284 -0.036,-0.226 0,0.039 0.015,0.136 0.047,0.4 8.524,55.661 -19.79,109.584 -64.051,146.044 l -0.133,0.313 c -86.245,70.223 -168.774,42.368 -185.484,30.966 a 144.108,144.108 0 0 1 -3.5,-1.743 c -50.282,-24.029 -71.054,-69.838 -66.6,-109.124 -42.457,0 -56.934,-35.809 -56.934,-35.809 0,0 38.119,-27.179 88.358,-3.541 46.53,21.893 90.228,3.543 90.233,3.541 -0.089,-1.952 -41.917,-18.59 -58.223,-34.656 -8.713,-8.584 -12.85,-12.723 -16.514,-15.828 a 71.355,71.355 0 0 0 -6.225,-4.7 282.929,282.929 0 0 0 -4.981,-3.3 c -17.528,-11.392 -52.388,-10.765 -53.543,-10.735 h -0.111 c -9.527,-12.067 -8.855,-51.873 -8.312,-60.184 -0.114,-0.515 -7.107,3.63 -8.023,4.255 a 175.073,175.073 0 0 0 -23.486,20.12 210.478,210.478 0 0 0 -22.442,26.919 c 0,0.012 -0.007,0.026 -0.011,0.038 0,-0.013 0.007,-0.026 0.011,-0.038 a 202.838,202.838 0 0 0 -32.247,72.805 c -0.115,0.521 -8.65,37.842 -4.44,57.199 z"
         fill="url(#h)" />
      <path
         style="fill:url(#i)"
         id="tail-flame"
         d="m 341.105,166.587 a 130.706,130.706 0 0 1 22.31,29.112 c 1.323,0.994 2.559,1.985 3.608,2.952 54.482,50.2 25.936,121.2 23.807,126.26 44.261,-36.46 72.575,-90.383 64.051,-146.044 C 427.706,111.135 381.627,83.823 344,24.355 c -1.9,-3.007 -3.805,-6.022 -5.661,-9.2 a 73.716,73.716 0 0 1 -2.646,-4.972 43.7,43.7 0 0 1 -3.593,-9.506 0.626,0.626 0 0 0 -0.546,-0.644 0.818,0.818 0 0 0 -0.451,0 c -0.034,0.012 -0.084,0.051 -0.12,0.065 -0.053,0.021 -0.12,0.069 -0.176,0.1 -9.291,4.428 -64.407,91.694 10.298,166.389 z"
         fill="url(#i)" />
      <path
         style="fill:url(#j)"
         id="tail-small"
         d="m 367.023,198.651 c -1.049,-0.967 -2.285,-1.958 -3.608,-2.952 -0.489,-0.368 -0.969,-0.734 -1.493,-1.1 -12.832,-9.014 -35.81,-17.917 -57.947,-14.067 86.441,43.214 63.235,192.026 -56.545,186.408 a 106.743,106.743 0 0 1 -31.271,-6.031 134.51,134.51 0 0 1 -7.059,-2.886 c -1.356,-0.618 -2.711,-1.243 -4.05,-1.935 0.048,0.033 0.114,0.07 0.163,0.1 16.71,11.4 99.239,39.257 185.484,-30.966 l 0.133,-0.313 c 2.129,-5.054 30.675,-76.057 -23.807,-126.258 z"
         fill="url(#j)" />
      <path
         style="fill:url(#k)"
         id="cheek-tufts"
         d="m 148.439,277.443 c 0,0 11.093,-41.335 79.432,-41.335 7.388,0 28.509,-20.615 28.9,-26.593 0.391,-5.978 -43.7,18.352 -90.233,-3.541 -50.239,-23.638 -88.358,3.541 -88.358,3.541 0,0 14.477,35.809 56.934,35.809 -4.453,39.286 16.319,85.1 66.6,109.124 1.124,0.537 2.18,1.124 3.334,1.639 -29.348,-15.169 -53.582,-43.834 -56.609,-78.644 z"
         fill="url(#k)" />
      <path
         style="fill:url(#l)"
         id="overlay-yellow"
         d="m 478.711,166.353 c -10.445,-25.124 -31.6,-52.248 -48.212,-60.821 13.52,26.505 21.345,53.093 24.335,72.936 0,0.039 0.015,0.136 0.047,0.4 C 427.706,111.135 381.627,83.823 344,24.355 c -1.9,-3.007 -3.805,-6.022 -5.661,-9.2 a 73.716,73.716 0 0 1 -2.646,-4.972 43.7,43.7 0 0 1 -3.593,-9.506 0.626,0.626 0 0 0 -0.546,-0.644 0.818,0.818 0 0 0 -0.451,0 c -0.034,0.012 -0.084,0.051 -0.12,0.065 -0.053,0.021 -0.12,0.069 -0.176,0.1 0.027,-0.036 0.083,-0.117 0.1,-0.136 -60.37,35.356 -80.85,100.761 -82.732,133.484 2.8,-0.194 5.592,-0.429 8.442,-0.429 45.053,0 84.291,24.77 105.3,61.484 -12.832,-9.014 -35.81,-17.917 -57.947,-14.067 86.441,43.214 63.235,192.026 -56.545,186.408 a 106.743,106.743 0 0 1 -31.271,-6.031 134.51,134.51 0 0 1 -7.059,-2.886 c -1.356,-0.618 -2.711,-1.243 -4.05,-1.935 0.048,0.033 0.114,0.07 0.163,0.1 a 144.108,144.108 0 0 1 -3.5,-1.743 c 1.124,0.537 2.18,1.124 3.334,1.639 -29.35,-15.168 -53.584,-43.833 -56.611,-78.643 0,0 11.093,-41.335 79.432,-41.335 7.388,0 28.509,-20.615 28.9,-26.593 -0.089,-1.952 -41.917,-18.59 -58.223,-34.656 -8.713,-8.584 -12.85,-12.723 -16.514,-15.828 a 71.355,71.355 0 0 0 -6.225,-4.7 111.338,111.338 0 0 1 -0.674,-58.732 c -24.688,11.241 -43.89,29.01 -57.85,44.7 h -0.111 c -9.527,-12.067 -8.855,-51.873 -8.312,-60.184 -0.114,-0.515 -7.107,3.63 -8.023,4.255 A 175.073,175.073 0 0 0 77.345,104.49 210.478,210.478 0 0 0 54.91,131.406 c 0,0.012 -0.007,0.026 -0.011,0.038 0,-0.013 0.007,-0.026 0.011,-0.038 a 202.838,202.838 0 0 0 -32.247,72.805 c -0.115,0.521 -0.212,1.061 -0.324,1.586 -0.452,2.116 -2.486,12.853 -2.77,15.156 -0.022,0.177 0.021,-0.176 0,0 a 279.565,279.565 0 0 0 -3.544,33.53 c 0,0.41 -0.025,0.816 -0.025,1.227 C 16,388.418 123.6,496 256.324,496 c 118.865,0 217.56,-86.288 236.882,-199.63 0.407,-3.076 0.733,-6.168 1.092,-9.271 4.777,-41.21 -0.53,-84.525 -15.587,-120.746 z m -23.841,12.341 c 0.012,0.085 0.027,0.174 0.04,0.259 l -0.008,-0.026 z"
         fill="url(#l)" />
    </g>
    <text
       style="fill:black;fill-opacity:1;line-height:1.25;stroke:none;font-family:sans-serif;font-style:normal;font-weight:normal;font-size:10.58333333px;white-space:pre;shape-inside:url(#rect1158);"
       id="text1156"
       xml:space="preserve" />
    <g
       style="font-style:normal;font-weight:normal;font-size:32.4484px;line-height:1.25;font-family:sans-serif;fill:#ffffff;fill-opacity:1;stroke:none;stroke-width:0.811209"
       id="text1164"
       aria-label="GET IT ON">
      <path
         id="path1205"
         style="fill:#ffffff;fill-opacity:1;stroke-width:0.811209"
         d="m 184.92615,40.052041 h 8.01475 v 11.35694 q -1.882,0.616519 -3.79646,0.908555 -1.91446,0.292036 -4.34809,0.292036 -3.60177,0 -6.06785,-1.42773 -2.46607,-1.460178 -3.76401,-4.120947 -1.26549,-2.693217 -1.26549,-6.359886 0,-3.63422 1.42773,-6.294989 1.42773,-2.660769 4.0885,-4.120947 2.69322,-1.492626 6.48968,-1.492626 1.9469,0 3.66667,0.356932 1.75221,0.356933 3.24484,1.005901 l -1.10325,2.530975 q -1.23304,-0.551623 -2.79056,-0.941004 -1.52507,-0.389381 -3.17994,-0.389381 -4.1534,0 -6.48968,2.498527 -2.30384,2.498527 -2.30384,6.846612 0,2.758114 0.87611,4.899708 0.90855,2.109146 2.82301,3.309737 1.91446,1.168142 5.0295,1.168142 1.52508,0 2.59587,-0.162242 1.0708,-0.162242 1.94691,-0.38938 v -6.879061 h -5.0944 z" />
      <path
         id="path1207"
         style="fill:#ffffff;fill-opacity:1;stroke-width:0.811209"
         d="M 211.43645,52.285088 H 198.48954 V 29.116931 h 12.94691 v 2.563423 h -10.02656 v 7.235993 h 9.44249 v 2.530975 h -9.44249 v 8.274342 h 10.02656 z" />
      <path
         id="path1209"
         style="fill:#ffffff;fill-opacity:1;stroke-width:0.811209"
         d="m 223.86418,52.285088 h -2.92036 V 31.680354 h -7.23599 v -2.563423 h 17.35989 v 2.563423 h -7.20354 z" />
      <path
         id="path1211"
         style="fill:#ffffff;fill-opacity:1;stroke-width:0.811209"
         d="m 249.5308,52.285088 h -8.37169 v -1.687317 l 2.72567,-0.61652 V 31.453216 l -2.72567,-0.648968 v -1.687317 h 8.37169 v 1.687317 l -2.72567,0.648968 v 18.528035 l 2.72567,0.61652 z" />
      <path
         id="path1213"
         style="fill:#ffffff;fill-opacity:1;stroke-width:0.811209"
         d="m 261.34198,52.285088 h -2.92036 V 31.680354 h -7.23599 v -2.563423 h 17.35989 v 2.563423 h -7.20354 z" />
      <path
         id="path1215"
         style="fill:#ffffff;fill-opacity:1;stroke-width:0.811209"
         d="m 300.70182,40.668561 q 0,3.601772 -1.23304,6.294989 -1.20059,2.660769 -3.56932,4.153395 -2.36874,1.492627 -5.87316,1.492627 -3.60177,0 -6.00296,-1.492627 -2.36873,-1.492626 -3.53687,-4.185843 -1.16814,-2.693217 -1.16814,-6.29499 0,-3.569323 1.16814,-6.230092 1.16814,-2.660769 3.53687,-4.153395 2.40119,-1.492626 6.03541,-1.492626 3.47197,0 5.84071,1.492626 2.36873,1.460178 3.56932,4.153395 1.23304,2.660769 1.23304,6.262541 z m -18.3009,0 q 0,4.380534 1.84956,6.911509 1.84956,2.498526 5.77582,2.498526 3.9587,0 5.77581,-2.498526 1.81711,-2.530975 1.81711,-6.911509 0,-4.380534 -1.81711,-6.846612 -1.81711,-2.498527 -5.74336,-2.498527 -3.92626,0 -5.80827,2.498527 -1.84956,2.466078 -1.84956,6.846612 z" />
      <path
         id="path1217"
         style="fill:#ffffff;fill-opacity:1;stroke-width:0.811209"
         d="m 324.19441,52.285088 h -3.40708 L 308.39204,33.043187 h -0.12979 q 0.0649,1.135694 0.16224,2.823011 0.0973,1.687317 0.0973,3.471979 v 12.946911 h -2.69321 V 29.116931 h 3.37463 l 12.36284,19.177004 h 0.12979 q -0.0324,-0.519175 -0.0973,-1.557524 -0.0325,-1.038348 -0.0974,-2.271387 -0.0324,-1.23304 -0.0324,-2.271388 V 29.116931 h 2.72567 z" />
    </g>
    <g
       style="font-style:normal;font-variant:normal;font-weight:bold;font-stretch:normal;font-size:10.5833px;line-height:1.25;font-family:sans-serif;-inkscape-font-specification:'sans-serif, Bold';font-variant-ligatures:normal;font-variant-caps:normal;font-variant-numeric:normal;font-variant-east-asian:normal;white-space:pre;shape-inside:url(#rect1168);fill:#ffffff;fill-opacity:1;stroke:none"
       id="text1166"
       transform="matrix(8.2104386,0,0,8.2104386,-1252.443,-530.91118)"
       aria-label="Firefox">
      <path
         id="path1190"
         style="font-style:normal;font-variant:normal;font-weight:bold;font-stretch:normal;font-size:10.5833px;font-family:sans-serif;-inkscape-font-specification:'sans-serif, Bold';font-variant-ligatures:normal;font-variant-caps:normal;font-variant-numeric:normal;font-variant-east-asian:normal;fill:#ffffff;fill-opacity:1"
         d="m 175.2755,81.727138 h -1.57691 v -7.556476 h 4.32857 v 1.312329 h -2.75166 v 1.947327 h 2.56116 v 1.312329 h -2.56116 z" />
      <path
         id="path1192"
         style="font-style:normal;font-variant:normal;font-weight:bold;font-stretch:normal;font-size:10.5833px;font-family:sans-serif;-inkscape-font-specification:'sans-serif, Bold';font-variant-ligatures:normal;font-variant-caps:normal;font-variant-numeric:normal;font-variant-east-asian:normal;fill:#ffffff;fill-opacity:1"
         d="m 180.17557,73.68383 q 0.34925,0 0.60325,0.169333 0.254,0.15875 0.254,0.603248 0,0.433915 -0.254,0.603248 -0.254,0.169333 -0.60325,0.169333 -0.35983,0 -0.61383,-0.169333 -0.24342,-0.169333 -0.24342,-0.603248 0,-0.444498 0.24342,-0.603248 0.254,-0.169333 0.61383,-0.169333 z m 0.78316,2.264826 v 5.778482 h -1.57691 v -5.778482 z" />
      <path
         id="path1194"
         style="font-style:normal;font-variant:normal;font-weight:bold;font-stretch:normal;font-size:10.5833px;font-family:sans-serif;-inkscape-font-specification:'sans-serif, Bold';font-variant-ligatures:normal;font-variant-caps:normal;font-variant-numeric:normal;font-variant-east-asian:normal;fill:#ffffff;fill-opacity:1"
         d="m 185.83762,75.842823 q 0.11641,0 0.27516,0.01058 0.15875,0.01058 0.254,0.03175 l -0.11642,1.481661 q -0.0741,-0.02117 -0.22224,-0.03175 -0.13759,-0.02117 -0.24342,-0.02117 -0.40217,0 -0.77258,0.148166 -0.37042,0.137583 -0.60325,0.455082 -0.22225,0.317499 -0.22225,0.867831 v 2.942157 h -1.57691 v -5.778482 h 1.19591 l 0.23283,0.973664 h 0.0741 q 0.254,-0.444499 0.6985,-0.761998 0.44449,-0.317499 1.02658,-0.317499 z" />
      <path
         id="path1196"
         style="font-style:normal;font-variant:normal;font-weight:bold;font-stretch:normal;font-size:10.5833px;font-family:sans-serif;-inkscape-font-specification:'sans-serif, Bold';font-variant-ligatures:normal;font-variant-caps:normal;font-variant-numeric:normal;font-variant-east-asian:normal;fill:#ffffff;fill-opacity:1"
         d="m 189.58408,75.842823 q 1.19592,0 1.89441,0.687915 0.6985,0.677331 0.6985,1.936744 v 0.761997 h -3.72532 q 0.0212,0.666748 0.39158,1.047747 0.381,0.380999 1.04775,0.380999 0.56091,0 1.016,-0.105833 0.45508,-0.116417 0.94191,-0.349249 v 1.217079 q -0.42333,0.211666 -0.89958,0.306916 -0.46567,0.105833 -1.13241,0.105833 -0.86783,0 -1.53458,-0.317499 -0.66675,-0.328082 -1.04775,-0.984247 -0.381,-0.656164 -0.381,-1.650995 0,-1.015996 0.33867,-1.682744 0.34925,-0.677331 0.96308,-1.015997 0.61383,-0.338666 1.42874,-0.338666 z m 0.0106,1.12183 q -0.45508,0 -0.762,0.296333 -0.29633,0.296332 -0.34925,0.920747 h 2.21191 q -0.0106,-0.529165 -0.27517,-0.867831 -0.26458,-0.349249 -0.82549,-0.349249 z" />
      <path
         id="path1198"
         style="font-style:normal;font-variant:normal;font-weight:bold;font-stretch:normal;font-size:10.5833px;font-family:sans-serif;-inkscape-font-specification:'sans-serif, Bold';font-variant-ligatures:normal;font-variant-caps:normal;font-variant-numeric:normal;font-variant-east-asian:normal;fill:#ffffff;fill-opacity:1"
         d="m 196.65372,77.133986 h -1.36524 v 4.593152 h -1.57691 v -4.593152 h -0.86783 v -0.761998 l 0.86783,-0.423332 v -0.423332 q 0,-0.740831 0.24341,-1.142996 0.254,-0.412749 0.70908,-0.582081 0.46567,-0.169333 1.09008,-0.169333 0.46567,0 0.83608,0.07408 0.381,0.07408 0.61384,0.169333 l -0.40217,1.153579 q -0.17992,-0.05292 -0.39158,-0.09525 -0.21167,-0.05292 -0.48683,-0.05292 -0.32809,0 -0.48684,0.201083 -0.14816,0.201082 -0.14816,0.507998 v 0.359832 h 1.36524 z" />
      <path
         id="path1200"
         style="font-style:normal;font-variant:normal;font-weight:bold;font-stretch:normal;font-size:10.5833px;font-family:sans-serif;-inkscape-font-specification:'sans-serif, Bold';font-variant-ligatures:normal;font-variant-caps:normal;font-variant-numeric:normal;font-variant-east-asian:normal;fill:#ffffff;fill-opacity:1"
         d="m 202.80261,78.827314 q 0,1.439329 -0.762,2.222493 -0.75141,0.783164 -2.05316,0.783164 -0.80433,0 -1.43932,-0.349249 -0.62442,-0.349249 -0.98425,-1.015997 -0.35983,-0.677331 -0.35983,-1.640411 0,-1.439329 0.75141,-2.21191 0.75142,-0.772581 2.06374,-0.772581 0.81492,0 1.43933,0.349249 0.62442,0.349249 0.98425,1.015997 0.35983,0.656165 0.35983,1.619245 z m -3.9899,0 q 0,0.857247 0.27516,1.301746 0.28575,0.433915 0.92075,0.433915 0.62442,0 0.89958,-0.433915 0.28575,-0.444499 0.28575,-1.301746 0,-0.857247 -0.28575,-1.280579 -0.27516,-0.433916 -0.91016,-0.433916 -0.62442,0 -0.91017,0.433916 -0.27516,0.423332 -0.27516,1.280579 z" />
      <path
         id="path1202"
         style="font-style:normal;font-variant:normal;font-weight:bold;font-stretch:normal;font-size:10.5833px;font-family:sans-serif;-inkscape-font-specification:'sans-serif, Bold';font-variant-ligatures:normal;font-variant-caps:normal;font-variant-numeric:normal;font-variant-east-asian:normal;fill:#ffffff;fill-opacity:1"
         d="m 205.07801,78.774397 -1.86266,-2.825741 h 1.78858 l 1.12183,1.841494 1.13241,-1.841494 h 1.78858 l -1.88383,2.825741 1.9685,2.952741 h -1.78858 l -1.21708,-1.979077 -1.21708,1.979077 h -1.78858 z" />
    </g>
  </g>
</svg>
