<?xml version="1.0" encoding="UTF-8" standalone="no"?>
<svg
   xmlns:dc="http://purl.org/dc/elements/1.1/"
   xmlns:cc="http://creativecommons.org/ns#"
   xmlns:rdf="http://www.w3.org/1999/02/22-rdf-syntax-ns#"
   xmlns:svg="http://www.w3.org/2000/svg"
   xmlns="http://www.w3.org/2000/svg"
   xmlns:sodipodi="http://sodipodi.sourceforge.net/DTD/sodipodi-0.dtd"
   xmlns:inkscape="http://www.inkscape.org/namespaces/inkscape"
   sodipodi:docname="on-the-web.svg"
   inkscape:version="1.0 (4035a4fb49, 2020-05-01)"
   id="svg8"
   version="1.1"
   viewBox="0 0 564 168"
   height="168mm"
   width="564mm">
  <defs
     id="defs2">
    <rect
       x="188.95199"
       y="196.91135"
       width="275.22445"
       height="105.80493"
       id="rect1094" />
    <rect
       x="212.15328"
       y="238.44977"
       width="412.70722"
       height="85.748953"
       id="rect1088" />
    <rect
       id="rect1168"
       height="67.384677"
       width="310.06449"
       y="72.098304"
       x="172.74642" />
    <rect
       id="rect1158"
       height="55.82342"
       width="325.31883"
       y="93.655275"
       x="189.34522" />
    <linearGradient
       gradientUnits="userSpaceOnUse"
       gradientTransform="scale(0.98374383,1.0165248)"
       id="a"
       x1="441.98419"
       y1="75.63131"
       x2="62.126281"
       y2="454.26937">
      <stop
         offset=".05"
         stop-color="#fff44f"
         id="stop979" />
      <stop
         offset=".37"
         stop-color="#ff980e"
         id="stop981" />
      <stop
         offset=".53"
         stop-color="#ff3647"
         id="stop983" />
      <stop
         offset=".7"
         stop-color="#e31587"
         id="stop985" />
    </linearGradient>
    <radialGradient
       gradientUnits="userSpaceOnUse"
       fy="61.159757"
       fx="392.80674"
       id="b"
       cx="392.80674"
       cy="61.159757"
       r="554.14583"
       gradientTransform="scale(1.1087373,0.9019269)">
      <stop
         offset=".13"
         stop-color="#ffbd4f"
         id="stop988" />
      <stop
         offset=".28"
         stop-color="#ff980e"
         id="stop990" />
      <stop
         offset=".47"
         stop-color="#ff3750"
         id="stop992" />
      <stop
         offset=".78"
         stop-color="#eb0878"
         id="stop994" />
      <stop
         offset=".86"
         stop-color="#e50080"
         id="stop996" />
    </radialGradient>
    <radialGradient
       gradientUnits="userSpaceOnUse"
       fy="290.17784"
       fx="226.56298"
       id="c"
       cx="226.56298"
       cy="290.17784"
       r="554.14583"
       gradientTransform="scale(1.1087373,0.9019269)">
      <stop
         offset=".3"
         stop-color="#960e18"
         id="stop999" />
      <stop
         offset=".35"
         stop-color="#b11927"
         stop-opacity=".74"
         id="stop1001" />
      <stop
         offset=".43"
         stop-color="#db293d"
         stop-opacity=".34"
         id="stop1003" />
      <stop
         offset=".5"
         stop-color="#f5334b"
         stop-opacity=".09"
         id="stop1005" />
      <stop
         offset=".53"
         stop-color="#ff3750"
         stop-opacity="0"
         id="stop1007" />
    </radialGradient>
    <radialGradient
       gradientUnits="userSpaceOnUse"
       fy="-17.973478"
       fx="395.44365"
       gradientTransform="scale(0.76747288,1.3029776)"
       id="d"
       cx="395.44365"
       cy="-17.973478"
       r="210.2099">
      <stop
         offset=".13"
         stop-color="#fff44f"
         id="stop1010" />
      <stop
         offset=".53"
         stop-color="#ff980e"
         id="stop1012" />
    </radialGradient>
    <radialGradient
       gradientUnits="userSpaceOnUse"
       fy="373.24011"
       fx="206.27053"
       gradientTransform="scale(0.95519576,1.0469058)"
       id="e"
       cx="206.27053"
       cy="373.24011"
       r="223.49659">
      <stop
         offset=".35"
         stop-color="#3a8ee6"
         id="stop1015" />
      <stop
         offset=".67"
         stop-color="#9059ff"
         id="stop1017" />
      <stop
         offset="1"
         stop-color="#c139e6"
         id="stop1019" />
    </radialGradient>
    <radialGradient
       gradientUnits="userSpaceOnUse"
       fy="200.9019"
       fx="271.62092"
       id="f"
       cx="271.62092"
       cy="200.9019"
       r="131.86298"
       gradientTransform="scale(0.95519576,1.0469058)">
      <stop
         offset=".21"
         stop-color="#9059ff"
         stop-opacity="0"
         id="stop1022" />
      <stop
         offset=".97"
         stop-color="#6e008b"
         stop-opacity=".6"
         id="stop1024" />
    </radialGradient>
    <radialGradient
       gradientUnits="userSpaceOnUse"
       fy="36.806651"
       fx="240.61284"
       gradientTransform="scale(0.99822767,1.0017755)"
       id="g"
       cx="240.61284"
       cy="36.806651"
       r="170.02094">
      <stop
         offset=".1"
         stop-color="#ffe226"
         id="stop1027" />
      <stop
         offset=".79"
         stop-color="#ff7139"
         id="stop1029" />
    </radialGradient>
    <radialGradient
       gradientUnits="userSpaceOnUse"
       fy="-81.709216"
       fx="362.075"
       gradientTransform="scale(1.0914501,0.91621229)"
       id="h"
       cx="362.075"
       cy="-81.709216"
       r="742.38693">
      <stop
         offset=".11"
         stop-color="#fff44f"
         id="stop1032" />
      <stop
         offset=".46"
         stop-color="#ff980e"
         id="stop1034" />
      <stop
         offset=".72"
         stop-color="#ff3647"
         id="stop1036" />
      <stop
         offset=".9"
         stop-color="#e31587"
         id="stop1038" />
    </radialGradient>
    <radialGradient
       gradientUnits="userSpaceOnUse"
       fy="-41.588268"
       fx="475.58807"
       id="i"
       cx="475.58807"
       cy="-41.588268"
       r="779.90861"
       gradientTransform="scale(0.68818401,1.4530997)">
      <stop
         offset="0"
         stop-color="#fff44f"
         id="stop1041" />
      <stop
         offset=".3"
         stop-color="#ff980e"
         id="stop1043" />
      <stop
         offset=".57"
         stop-color="#ff3647"
         id="stop1045" />
      <stop
         offset=".74"
         stop-color="#e31587"
         id="stop1047" />
    </radialGradient>
    <radialGradient
       gradientUnits="userSpaceOnUse"
       fy="99.00617"
       fx="239.79737"
       gradientTransform="scale(1.008901,0.9911775)"
       id="j"
       cx="239.79737"
       cy="99.00617"
       r="461.1138">
      <stop
         offset=".14"
         stop-color="#fff44f"
         id="stop1050" />
      <stop
         offset=".48"
         stop-color="#ff980e"
         id="stop1052" />
      <stop
         offset=".66"
         stop-color="#ff3647"
         id="stop1054" />
      <stop
         offset=".9"
         stop-color="#e31587"
         id="stop1056" />
    </radialGradient>
    <radialGradient
       gradientUnits="userSpaceOnUse"
       fy="132.0125"
       fx="343.03801"
       gradientTransform="scale(1.0572577,0.94584319)"
       id="k"
       cx="343.03801"
       cy="132.0125"
       r="528.89329">
      <stop
         offset=".09"
         stop-color="#fff44f"
         id="stop1059" />
      <stop
         offset=".63"
         stop-color="#ff980e"
         id="stop1061" />
    </radialGradient>
    <linearGradient
       gradientUnits="userSpaceOnUse"
       gradientTransform="scale(0.98373973,1.016529)"
       id="l"
       x1="406.61137"
       y1="68.31199"
       x2="104.09252"
       y2="409.86551">
      <stop
         offset=".17"
         stop-color="#fff44f"
         stop-opacity=".8"
         id="stop1064" />
      <stop
         offset=".6"
         stop-color="#fff44f"
         stop-opacity="0"
         id="stop1066" />
    </linearGradient>
  </defs>
  <sodipodi:namedview
     inkscape:window-maximized="1"
     inkscape:window-y="0"
     inkscape:window-x="0"
     inkscape:window-height="1002"
     inkscape:window-width="1920"
     showgrid="false"
     inkscape:document-rotation="0"
     inkscape:current-layer="layer1"
     inkscape:document-units="mm"
     inkscape:cy="288.90483"
     inkscape:cx="1420.6288"
     inkscape:zoom="0.35"
     inkscape:pageshadow="2"
     inkscape:pageopacity="0.0"
     borderopacity="1.0"
     bordercolor="#666666"
     pagecolor="#ffffff"
     id="base" />
  <metadata
     id="metadata5">
    <rdf:RDF>
      <cc:Work
         rdf:about="">
        <dc:format>image/svg+xml</dc:format>
        <dc:type
           rdf:resource="http://purl.org/dc/dcmitype/StillImage" />
        <dc:title></dc:title>
      </cc:Work>
    </rdf:RDF>
  </metadata>
  <g
     id="layer1"
     inkscape:groupmode="layer"
     inkscape:label="Calque 1">
    <rect
       ry="19.110165"
       y="2.0221176"
       x="2.0221252"
       height="163.95576"
       width="559.95575"
       id="rect1154"
       style="fill:#000000;fill-opacity:1;stroke:#aaaaaa;stroke-width:4.04424;stroke-miterlimit:4;stroke-dasharray:none;stroke-opacity:1" />
    <text
       style="fill:black;fill-opacity:1;line-height:1.25;stroke:none;font-family:sans-serif;font-style:normal;font-weight:normal;font-size:10.58333333px;white-space:pre;shape-inside:url(#rect1158);"
       id="text1156"
       xml:space="preserve" />
    <g
       id="g1084"
       transform="matrix(0.23035301,0,0,0.23035301,32.000514,25.029629)"
       style="fill:#00b4c4;fill-opacity:1;stroke:#00b4c4;stroke-width:8.93858;stroke-miterlimit:4;stroke-dasharray:none;stroke-opacity:1">
      <g
         id="g1021"
         style="fill:#00b4c4;fill-opacity:1;stroke:#00b4c4;stroke-width:8.93858;stroke-miterlimit:4;stroke-dasharray:none;stroke-opacity:1">
        <g
           id="g1019"
           style="fill:#00b4c4;fill-opacity:1;stroke:#00b4c4;stroke-width:8.93858;stroke-miterlimit:4;stroke-dasharray:none;stroke-opacity:1">
          <g
             id="g1017"
             style="fill:#00b4c4;fill-opacity:1;stroke:#00b4c4;stroke-width:8.93858;stroke-miterlimit:4;stroke-dasharray:none;stroke-opacity:1">
            <path
               id="path1005"
               d="M 469.333,0 H 42.667 C 19.114,0.028 0.028,19.114 0,42.667 V 469.334 C 0.028,492.886 19.114,511.972 42.667,512 h 426.667 c 23.552,-0.028 42.638,-19.114 42.667,-42.667 V 42.667 C 511.972,19.114 492.886,0.028 469.333,0 Z m 25.6,469.333 c 0,14.138 -11.461,25.6 -25.6,25.6 H 42.667 c -14.138,0 -25.6,-11.461 -25.6,-25.6 v -384 h 477.867 v 384 z m 0,-401.066 H 17.067 v -25.6 c 0,-14.138 11.462,-25.6 25.6,-25.6 h 426.667 c 14.138,0 25.6,11.462 25.6,25.6 v 25.6 z"
               style="fill:#00b4c4;fill-opacity:1;stroke:#00b4c4;stroke-width:8.93858;stroke-miterlimit:4;stroke-dasharray:none;stroke-opacity:1" />
            <path
               id="path1007"
               d="M 59.733,34.133 H 51.2 c -4.713,0 -8.533,3.82 -8.533,8.533 0,4.713 3.82,8.534 8.533,8.534 h 8.533 c 4.713,0 8.533,-3.82 8.533,-8.533 0,-4.713 -3.82,-8.534 -8.533,-8.534 z"
               style="fill:#00b4c4;fill-opacity:1;stroke:#00b4c4;stroke-width:8.93858;stroke-miterlimit:4;stroke-dasharray:none;stroke-opacity:1" />
            <path
               id="path1009"
               d="m 97.109,34.816 c -2.06,-0.939 -4.426,-0.939 -6.485,0 -1.034,0.433 -1.986,1.039 -2.816,1.792 -3.3,3.365 -3.3,8.752 0,12.117 0.83,0.753 1.782,1.359 2.816,1.792 2.066,0.91 4.419,0.91 6.485,0 1.034,-0.433 1.986,-1.039 2.816,-1.792 3.3,-3.365 3.3,-8.752 0,-12.117 -0.83,-0.753 -1.782,-1.359 -2.816,-1.792 z"
               style="fill:#00b4c4;fill-opacity:1;stroke:#00b4c4;stroke-width:8.93858;stroke-miterlimit:4;stroke-dasharray:none;stroke-opacity:1" />
            <path
               id="path1011"
               d="m 131.272,34.736 c -3.202,-1.329 -6.89,-0.59 -9.331,1.872 -0.753,0.83 -1.359,1.782 -1.792,2.816 -0.911,2.066 -0.911,4.419 0,6.485 0.433,1.034 1.039,1.986 1.792,2.816 3.365,3.3 8.752,3.3 12.117,0 0.753,-0.83 1.359,-1.782 1.792,-2.816 0.478,-1.013 0.712,-2.123 0.683,-3.243 0.021,-3.466 -2.059,-6.601 -5.261,-7.93 z"
               style="fill:#00b4c4;fill-opacity:1;stroke:#00b4c4;stroke-width:8.93858;stroke-miterlimit:4;stroke-dasharray:none;stroke-opacity:1" />
            <path
               id="path1013"
               d="M 460.8,34.133 H 170.667 c -4.713,0 -8.533,3.82 -8.533,8.533 0,4.713 3.82,8.533 8.533,8.533 H 460.8 c 4.713,0 8.533,-3.82 8.533,-8.533 0,-4.713 -3.82,-8.533 -8.533,-8.533 z"
               style="fill:#00b4c4;fill-opacity:1;stroke:#00b4c4;stroke-width:8.93858;stroke-miterlimit:4;stroke-dasharray:none;stroke-opacity:1" />
            <path
               id="path1015"
               d="m 131.012,406.357 c 0.388,0.357 0.811,0.675 1.263,0.947 32.121,34.15 76.927,53.51 123.81,53.495 46.883,-0.015 91.676,-19.402 123.776,-53.572 0.424,-0.247 0.824,-0.533 1.195,-0.853 0.28,-0.393 0.526,-0.81 0.734,-1.246 59.882,-64.957 59.882,-164.999 0,-229.956 l -0.034,-0.017 c -0.208,-0.436 -0.454,-0.853 -0.734,-1.246 -0.389,-0.362 -0.815,-0.682 -1.271,-0.956 -32.107,-34.122 -76.88,-53.47 -123.733,-53.47 -46.853,0 -91.626,19.348 -123.733,53.47 -0.456,0.273 -0.882,0.594 -1.271,0.956 -0.28,0.393 -0.526,0.81 -0.734,1.246 -59.882,64.957 -59.882,164.999 0,229.956 0.207,0.436 0.452,0.853 0.732,1.246 z m 171.537,30.097 c 13.117,-15.841 22.99,-34.108 29.056,-53.76 v -0.026 c 10.72,5.022 20.834,11.245 30.148,18.551 -16.812,16.077 -37.056,28.125 -59.204,35.235 z m 70.981,-47.633 c -11.356,-9.11 -23.817,-16.751 -37.086,-22.741 5.488,-22.067 8.485,-44.679 8.934,-67.413 h 63.787 c -1.774,33.123 -14.283,64.769 -35.635,90.154 z M 409.165,281.6 h -63.787 c -0.45,-22.734 -3.447,-45.347 -8.934,-67.413 13.268,-5.985 25.729,-13.62 37.086,-22.724 21.349,25.38 33.857,57.019 35.635,90.137 z M 361.754,179.021 c -9.314,7.306 -19.428,13.53 -30.148,18.551 -6.063,-19.661 -15.936,-37.937 -29.056,-53.786 22.147,7.111 42.391,19.159 59.204,35.235 z m -97.221,-41.293 c 20.915,5.478 39.415,30.626 51.072,66.227 -16.468,5.678 -33.669,8.951 -51.072,9.719 z m 0,93.022 c 18.987,-0.711 37.773,-4.159 55.774,-10.24 4.841,20.019 7.527,40.499 8.013,61.09 h -63.787 z m 0,67.917 h 63.787 c -0.487,20.585 -3.173,41.059 -8.013,61.073 -18.002,-6.075 -36.787,-9.518 -55.774,-10.223 z m 0,67.925 c 17.403,0.771 34.604,4.047 51.072,9.728 -11.657,35.601 -30.157,60.749 -51.072,66.227 z m -114.287,34.603 c 9.317,-7.288 19.431,-13.495 30.148,-18.5 v -0.026 c 6.066,19.652 15.939,37.919 29.056,53.76 -22.147,-7.11 -42.391,-19.158 -59.204,-35.234 z m 97.221,41.344 c -20.915,-5.478 -39.415,-30.626 -51.072,-66.227 16.468,-5.678 33.669,-8.951 51.072,-9.719 z m 0,-93.022 c -18.987,0.711 -37.772,4.159 -55.774,10.24 -4.841,-20.02 -7.527,-40.499 -8.013,-61.09 h 63.787 z m 0,-67.917 H 183.68 c 0.487,-20.585 3.173,-41.059 8.013,-61.073 18.002,6.075 36.787,9.518 55.774,10.223 z m 0,-143.881 v 75.955 c -17.403,-0.771 -34.604,-4.047 -51.072,-9.728 11.656,-35.6 30.156,-60.748 51.072,-66.227 z m -38.016,6.042 c -13.123,15.856 -22.996,34.141 -29.056,53.811 v -0.026 c -10.72,-5.022 -20.834,-11.245 -30.148,-18.552 16.812,-16.075 37.056,-28.123 59.204,-35.233 z m -70.981,47.684 c 11.356,9.11 23.817,16.751 37.086,22.741 -5.488,22.067 -8.485,44.679 -8.934,67.413 h -63.787 c 1.774,-33.123 14.283,-64.769 35.635,-90.154 z m 28.152,107.222 c 0.45,22.734 3.447,45.347 8.934,67.413 -13.268,5.985 -25.729,13.62 -37.086,22.724 -21.349,-25.38 -33.857,-57.02 -35.635,-90.138 h 63.787 z"
               style="fill:#00b4c4;fill-opacity:1;stroke:#00b4c4;stroke-width:8.93858;stroke-miterlimit:4;stroke-dasharray:none;stroke-opacity:1" />
          </g>
        </g>
      </g>
      <g
         id="g1023"
         style="fill:#00b4c4;fill-opacity:1;stroke:#00b4c4;stroke-width:8.93858;stroke-miterlimit:4;stroke-dasharray:none;stroke-opacity:1" />
      <g
         id="g1025"
         style="fill:#00b4c4;fill-opacity:1;stroke:#00b4c4;stroke-width:8.93858;stroke-miterlimit:4;stroke-dasharray:none;stroke-opacity:1" />
      <g
         id="g1027"
         style="fill:#00b4c4;fill-opacity:1;stroke:#00b4c4;stroke-width:8.93858;stroke-miterlimit:4;stroke-dasharray:none;stroke-opacity:1" />
      <g
         id="g1029"
         style="fill:#00b4c4;fill-opacity:1;stroke:#00b4c4;stroke-width:8.93858;stroke-miterlimit:4;stroke-dasharray:none;stroke-opacity:1" />
      <g
         id="g1031"
         style="fill:#00b4c4;fill-opacity:1;stroke:#00b4c4;stroke-width:8.93858;stroke-miterlimit:4;stroke-dasharray:none;stroke-opacity:1" />
      <g
         id="g1033"
         style="fill:#00b4c4;fill-opacity:1;stroke:#00b4c4;stroke-width:8.93858;stroke-miterlimit:4;stroke-dasharray:none;stroke-opacity:1" />
      <g
         id="g1035"
         style="fill:#00b4c4;fill-opacity:1;stroke:#00b4c4;stroke-width:8.93858;stroke-miterlimit:4;stroke-dasharray:none;stroke-opacity:1" />
      <g
         id="g1037"
         style="fill:#00b4c4;fill-opacity:1;stroke:#00b4c4;stroke-width:8.93858;stroke-miterlimit:4;stroke-dasharray:none;stroke-opacity:1" />
      <g
         id="g1039"
         style="fill:#00b4c4;fill-opacity:1;stroke:#00b4c4;stroke-width:8.93858;stroke-miterlimit:4;stroke-dasharray:none;stroke-opacity:1" />
      <g
         id="g1041"
         style="fill:#00b4c4;fill-opacity:1;stroke:#00b4c4;stroke-width:8.93858;stroke-miterlimit:4;stroke-dasharray:none;stroke-opacity:1" />
      <g
         id="g1043"
         style="fill:#00b4c4;fill-opacity:1;stroke:#00b4c4;stroke-width:8.93858;stroke-miterlimit:4;stroke-dasharray:none;stroke-opacity:1" />
      <g
         id="g1045"
         style="fill:#00b4c4;fill-opacity:1;stroke:#00b4c4;stroke-width:8.93858;stroke-miterlimit:4;stroke-dasharray:none;stroke-opacity:1" />
      <g
         id="g1047"
         style="fill:#00b4c4;fill-opacity:1;stroke:#00b4c4;stroke-width:8.93858;stroke-miterlimit:4;stroke-dasharray:none;stroke-opacity:1" />
      <g
         id="g1049"
         style="fill:#00b4c4;fill-opacity:1;stroke:#00b4c4;stroke-width:8.93858;stroke-miterlimit:4;stroke-dasharray:none;stroke-opacity:1" />
      <g
         id="g1051"
         style="fill:#00b4c4;fill-opacity:1;stroke:#00b4c4;stroke-width:8.93858;stroke-miterlimit:4;stroke-dasharray:none;stroke-opacity:1" />
    </g>
    <g
       style="font-style:normal;font-weight:normal;font-size:10.5833px;line-height:1.25;font-family:sans-serif;white-space:pre;shape-inside:url(#rect1088);fill:#ffffff;fill-opacity:1;stroke:none"
       id="text1086"
       transform="matrix(3.0660551,0,0,3.0660551,-479.69218,-708.33745)"
       aria-label="USE IT ON THE">
      <path
         id="path929"
         style="fill:#ffffff;fill-opacity:1"
         d="m 218.92566,240.52222 v 4.88949 q 0,0.78316 -0.3175,1.41816 -0.3175,0.62442 -0.97367,0.99483 -0.64558,0.35983 -1.65099,0.35983 -1.40758,0 -2.14841,-0.76199 -0.73025,-0.77259 -0.73025,-2.032 v -4.86832 h 0.9525 v 4.90007 q 0,0.92075 0.48683,1.42875 0.49741,0.508 1.49224,0.508 1.02658,0 1.48167,-0.53975 0.46566,-0.55033 0.46566,-1.40758 v -4.88949 z" />
      <path
         id="path931"
         style="fill:#ffffff;fill-opacity:1"
         d="m 225.20154,246.05729 q 0,1.00541 -0.73025,1.56633 -0.73024,0.56091 -1.96849,0.56091 -0.635,0 -1.17475,-0.0952 -0.53974,-0.0952 -0.89958,-0.26458 v -0.91016 q 0.381,0.16933 0.94192,0.30691 0.5715,0.13759 1.17474,0.13759 0.84667,0 1.27,-0.32809 0.43391,-0.32808 0.43391,-0.88899 0,-0.37042 -0.15874,-0.62442 -0.15875,-0.254 -0.55034,-0.46566 -0.381,-0.22225 -1.06891,-0.46567 -0.96308,-0.34925 -1.46049,-0.85725 -0.48684,-0.50799 -0.48684,-1.38641 0,-0.60325 0.30692,-1.02658 0.30691,-0.43391 0.84666,-0.66675 0.55033,-0.23283 1.25942,-0.23283 0.62441,0 1.14299,0.11642 0.51858,0.11641 0.94192,0.30691 l -0.29634,0.81492 q -0.39158,-0.16934 -0.85724,-0.28575 -0.45509,-0.11642 -0.9525,-0.11642 -0.70908,0 -1.06891,0.30692 -0.35984,0.29633 -0.35984,0.79375 0,0.38099 0.15875,0.63499 0.15875,0.254 0.51858,0.45509 0.35984,0.20108 0.97367,0.43391 0.66675,0.24342 1.12183,0.52917 0.46566,0.27516 0.6985,0.66674 0.24341,0.39159 0.24341,0.98425 z" />
      <path
         id="path933"
         style="fill:#ffffff;fill-opacity:1"
         d="m 230.94827,248.0787 h -4.22274 v -7.55648 h 4.22274 v 0.83609 h -3.27024 v 2.36007 h 3.07974 v 0.8255 h -3.07974 v 2.69874 h 3.27024 z" />
      <path
         id="path935"
         style="fill:#ffffff;fill-opacity:1"
         d="m 237.48873,248.0787 h -2.73049 v -0.55033 l 0.889,-0.20108 v -6.04307 l -0.889,-0.21166 v -0.55034 h 2.73049 v 0.55034 l -0.889,0.21166 v 6.04307 l 0.889,0.20108 z" />
      <path
         id="path937"
         style="fill:#ffffff;fill-opacity:1"
         d="m 241.34104,248.0787 h -0.9525 v -6.72039 h -2.36007 v -0.83609 h 5.66206 v 0.83609 h -2.34949 z" />
      <path
         id="path939"
         style="fill:#ffffff;fill-opacity:1"
         d="m 254.17856,244.28988 q 0,1.17475 -0.40216,2.05316 -0.39159,0.86783 -1.16417,1.35466 -0.77258,0.48683 -1.91557,0.48683 -1.17475,0 -1.95791,-0.48683 -0.77259,-0.48683 -1.15358,-1.36524 -0.381,-0.87842 -0.381,-2.05316 0,-1.16417 0.381,-2.032 0.38099,-0.86783 1.15358,-1.35466 0.78316,-0.48683 1.96849,-0.48683 1.13241,0 1.90499,0.48683 0.77258,0.47625 1.16417,1.35466 0.40216,0.86783 0.40216,2.04258 z m -5.96898,0 q 0,1.42874 0.60325,2.25424 0.60325,0.81492 1.88383,0.81492 1.29116,0 1.88382,-0.81492 0.59267,-0.8255 0.59267,-2.25424 0,-1.42875 -0.59267,-2.23308 -0.59266,-0.81491 -1.87324,-0.81491 -1.28058,0 -1.89441,0.81491 -0.60325,0.80433 -0.60325,2.23308 z" />
      <path
         id="path941"
         style="fill:#ffffff;fill-opacity:1"
         d="m 261.84085,248.0787 h -1.11125 l -4.04282,-6.2759 h -0.0423 q 0.0212,0.37042 0.0529,0.92075 0.0318,0.55033 0.0318,1.13241 v 4.22274 h -0.87842 v -7.55648 h 1.10067 l 4.03223,6.25473 h 0.0423 q -0.0106,-0.16933 -0.0317,-0.50799 -0.0106,-0.33867 -0.0317,-0.74083 -0.0106,-0.40217 -0.0106,-0.74084 v -4.26507 h 0.889 z" />
      <path
         id="path943"
         style="fill:#ffffff;fill-opacity:1"
         d="m 269.03746,248.0787 h -0.9525 v -6.72039 h -2.36007 v -0.83609 h 5.66206 v 0.83609 h -2.34949 z" />
      <path
         id="path945"
         style="fill:#ffffff;fill-opacity:1"
         d="m 278.30843,248.0787 h -0.9525 v -3.52424 h -3.87349 v 3.52424 h -0.9525 v -7.55648 h 0.9525 v 3.19616 h 3.87349 v -3.19616 h 0.9525 z" />
      <path
         id="path947"
         style="fill:#ffffff;fill-opacity:1"
         d="m 284.5949,248.0787 h -4.22274 v -7.55648 h 4.22274 v 0.83609 h -3.27024 v 2.36007 h 3.07974 v 0.8255 h -3.07974 v 2.69874 h 3.27024 z" />
    </g>
    <g
       style="font-style:normal;font-variant:normal;font-weight:bold;font-stretch:normal;font-size:10.5833px;line-height:1.25;font-family:sans-serif;-inkscape-font-specification:'sans-serif, Bold';font-variant-ligatures:normal;font-variant-caps:normal;font-variant-numeric:normal;font-variant-east-asian:normal;white-space:pre;shape-inside:url(#rect1094);fill:#ffffff;fill-opacity:1;stroke:none"
       id="text1092"
       transform="matrix(8.9118262,0,0,8.9118262,-1510.201,-1699.6898)"
       aria-label="WEB">
      <path
         id="path922"
         style="font-style:normal;font-variant:normal;font-weight:bold;font-stretch:normal;font-size:10.5833px;font-family:sans-serif;-inkscape-font-specification:'sans-serif, Bold';font-variant-ligatures:normal;font-variant-caps:normal;font-variant-numeric:normal;font-variant-east-asian:normal;fill:#ffffff;fill-opacity:1"
         d="m 199.18522,198.98512 -1.92616,7.55647 h -1.82033 l -1.02658,-3.96874 q -0.0317,-0.11641 -0.0847,-0.34925 -0.0423,-0.23283 -0.10583,-0.50799 -0.0529,-0.27517 -0.0953,-0.51859 -0.0423,-0.25399 -0.0635,-0.39158 -0.0106,0.13759 -0.0635,0.39158 -0.0423,0.24342 -0.0953,0.51859 -0.0529,0.26458 -0.10584,0.50799 -0.0529,0.23284 -0.0847,0.35984 l -1.016,3.95815 h -1.82033 l -1.92616,-7.55647 h 1.57691 l 0.96308,4.12748 q 0.0635,0.24342 0.13759,0.61383 0.0741,0.37042 0.13758,0.74083 0.0635,0.37042 0.0952,0.62442 0.0317,-0.26458 0.0952,-0.62442 0.0635,-0.37041 0.127,-0.70908 0.0741,-0.34925 0.127,-0.53975 l 1.10066,-4.23331 h 1.51341 l 1.10067,4.23331 q 0.0529,0.17992 0.11641,0.52917 0.0741,0.34925 0.13759,0.71966 0.0635,0.37042 0.0952,0.62442 0.0317,-0.26458 0.0952,-0.62442 0.0635,-0.37041 0.13759,-0.74083 0.0847,-0.37041 0.13758,-0.61383 l 0.96308,-4.12748 z" />
      <path
         id="path924"
         style="font-style:normal;font-variant:normal;font-weight:bold;font-stretch:normal;font-size:10.5833px;font-family:sans-serif;-inkscape-font-specification:'sans-serif, Bold';font-variant-ligatures:normal;font-variant-caps:normal;font-variant-numeric:normal;font-variant-east-asian:normal;fill:#ffffff;fill-opacity:1"
         d="m 204.48745,206.54159 h -4.34974 v -7.55647 h 4.34974 v 1.31232 h -2.75166 v 1.66158 h 2.56116 v 1.31233 h -2.56116 v 1.94733 h 2.75166 z" />
      <path
         id="path926"
         style="font-style:normal;font-variant:normal;font-weight:bold;font-stretch:normal;font-size:10.5833px;font-family:sans-serif;-inkscape-font-specification:'sans-serif, Bold';font-variant-ligatures:normal;font-variant-caps:normal;font-variant-numeric:normal;font-variant-east-asian:normal;fill:#ffffff;fill-opacity:1"
         d="m 206.06435,198.98512 h 2.34949 q 1.51342,0 2.286,0.42333 0.77258,0.42333 0.77258,1.49224 0,0.64558 -0.30692,1.09008 -0.29633,0.4445 -0.85725,0.53975 v 0.0529 q 0.381,0.0741 0.68792,0.26458 0.30691,0.1905 0.48683,0.55033 0.17992,0.35983 0.17992,0.9525 0,1.02658 -0.74083,1.60866 -0.74083,0.58208 -2.032,0.58208 h -2.82574 z m 1.59808,2.99507 h 0.93133 q 0.6985,0 0.96308,-0.22225 0.27517,-0.22225 0.27517,-0.64558 0,-0.43392 -0.3175,-0.62442 -0.3175,-0.1905 -1.00542,-0.1905 h -0.84666 z m 0,1.26999 v 1.9685 h 1.04775 q 0.71966,0 1.00541,-0.27517 0.28575,-0.28575 0.28575,-0.75141 0,-0.42333 -0.29633,-0.67733 -0.28575,-0.26459 -1.04775,-0.26459 z" />
    </g>
  </g>
</svg>
