<?xml version="1.0" encoding="UTF-8" standalone="no"?>
<svg
   xmlns:dc="http://purl.org/dc/elements/1.1/"
   xmlns:cc="http://creativecommons.org/ns#"
   xmlns:rdf="http://www.w3.org/1999/02/22-rdf-syntax-ns#"
   xmlns:svg="http://www.w3.org/2000/svg"
   xmlns="http://www.w3.org/2000/svg"
   version="1.1"
   viewBox="0 0 800 799.99998"
   height="800"
   width="800"
   data-name="Layer 1"
   id="a9a7ffe7-bffb-40a8-a3c8-a3664a9c484c">
  <metadata
     id="metadata67">
    <rdf:RDF>
      <cc:Work
         rdf:about="">
        <dc:format>image/svg+xml</dc:format>
        <dc:type
           rdf:resource="http://purl.org/dc/dcmitype/StillImage" />
        <dc:title>access_account</dc:title>
      </cc:Work>
    </rdf:RDF>
  </metadata>
  <defs
     id="defs65" />
  <title
     id="title2">access_account</title>
  <g
     transform="translate(2,-44.114422)"
     id="g871">
    <path
       d="M 97.079,642.67549 88.18874,607.61063 A 455.3229,455.3229 0 0 0 39.88157,590.2795 L 38.759,606.57556 34.20725,588.62228 C 13.84943,582.80905 0,580.24843 0,580.24843 c 0,0 18.70738,71.13842 57.94476,125.52465 l 45.72014,8.031 -35.51871,5.12114 a 184.211,184.211 0 0 0 15.888,16.83723 c 57.07929,52.9818 120.65488,77.29013 142.00008,54.29413 21.3452,-22.996 -7.623,-84.58813 -64.70233,-137.56993 -17.69515,-16.42488 -39.924,-29.6057 -62.175,-39.97928 z"
       id="path4"
       style="fill:#00c334;fill-opacity:1" />
    <path
       d="m 181.63224,604.59585 10.51462,-34.61248 A 455.32041,455.32041 0 0 0 159.75223,530.1771 l -9.3844,13.36992 5.38357,-17.72159 c -14.42234,-15.49938 -24.95448,-24.85018 -24.95448,-24.85018 0,0 -20.75719,70.56756 -15.28054,137.40647 l 34.98725,30.50771 -33.05275,-13.97575 a 184.2128,184.2128 0 0 0 4.89768,22.626 c 21.47608,74.85917 63.33463,128.5305 93.49375,119.87826 30.15912,-8.65224 37.19806,-76.3516 15.722,-151.21077 -6.6578,-23.20708 -18.87351,-45.98058 -32.55921,-66.36238 z"
       id="path6"
       style="fill:#00c334;fill-opacity:1" />
    <path
       d="m 682.17981,746.17027 6.61544,-7.14478 a 122.56157,122.56157 0 0 0 -3.1639,-13.4473 l -3.84424,2.134 3.38713,-3.65813 c -1.66992,-5.44865 -3.12076,-8.95111 -3.12076,-8.95111 0,0 -13.32284,14.64664 -19.85509,31.47479 l 4.88491,11.50059 -6.36018,-7.27012 a 49.58586,49.58586 0 0 0 -1.47426,6.05443 c -3.60112,20.65124 0.22421,38.56849 8.54414,40.0193 8.31993,1.45081 17.98384,-14.1142 21.585,-34.76544 a 65.28076,65.28076 0 0 0 -0.0815,-19.8969 z"
       id="path8"
       style="fill:#00c334;fill-opacity:1" />
    <path
       d="m 780.04942,760.30014 9.35626,-2.69673 a 122.55844,122.55844 0 0 0 4.24249,-13.14691 l -4.39392,-0.16027 4.79042,-1.38071 C 795.43156,737.38805 796,733.63984 796,733.63984 c 0,0 -18.97582,5.65159 -33.26621,16.68071 l -1.763,12.37 -1.68666,-9.51114 a 49.58626,49.58626 0 0 0 -4.39158,4.42083 c -13.75737,15.817 -19.74417,33.13225 -13.37186,38.67479 6.37231,5.54254 22.69062,-2.78652 36.448,-18.60348 a 65.281,65.281 0 0 0 10.215,-17.07476 z"
       id="path10"
       style="fill:#00c334;fill-opacity:1" />
    <path
       d="M 518.49687,136.52043 V 748.684 A 48.30136,48.30136 0 0 1 470.2053,796.97569 H 232.31173 A 48.30567,48.30567 0 0 1 184,748.684 V 136.52043 a 48.30564,48.30564 0 0 1 48.31173,-48.291568 h 28.85807 a 22.96636,22.96636 0 0 0 21.246,31.617128 H 418.0471 A 22.96611,22.96611 0 0 0 439.293,88.228882 h 30.9123 a 48.30134,48.30134 0 0 1 48.29157,48.291548 z"
       id="path12"
       style="fill:#003f45;fill-opacity:1" />
    <path
       d="m 317.72822,341.76943 a 23.87666,23.87666 0 0 1 11.9461,-20.68789 23.89222,23.89222 0 1 0 0,41.37573 23.87652,23.87652 0 0 1 -11.9461,-20.68784 z"
       id="path14"
       style="fill:#ffffff" />
    <path
       d="m 347.76412,341.76943 a 23.87668,23.87668 0 0 1 11.94609,-20.68789 23.89222,23.89222 0 1 0 0,41.37573 23.87653,23.87653 0 0 1 -11.94609,-20.68784 z"
       id="path16"
       style="fill:#ffffff" />
    <circle
       cx="377.11737"
       cy="341.76947"
       r="23.892191"
       id="circle18"
       style="fill:#00b4c4;fill-opacity:1" />
    <rect
       x="244.57422"
       y="498.13293"
       width="213.56445"
       height="2"
       id="rect20"
       style="fill:#ffffff" />
    <circle
       cx="251.31877"
       cy="478.90036"
       r="6.7441401"
       id="circle22"
       style="fill:#00b4c4;fill-opacity:1" />
    <rect
       x="244.57422"
       y="565.57434"
       width="213.56445"
       height="2"
       id="rect24"
       style="fill:#ffffff" />
    <circle
       cx="251.31877"
       cy="546.3418"
       r="6.7441401"
       id="circle26"
       style="fill:#00b4c4;fill-opacity:1" />
    <path
       d="M 417.0459,416.39318 H 277.79883 a 5.00588,5.00588 0 0 1 -5,-5 V 272.14611 a 5.00589,5.00589 0 0 1 5,-5 H 417.0459 a 5.00589,5.00589 0 0 1 5,5 v 139.24707 a 5.00589,5.00589 0 0 1 -5,5 z M 277.79883,269.14611 a 3.00328,3.00328 0 0 0 -3,3 v 139.24707 a 3.00328,3.00328 0 0 0 3,3 H 417.0459 a 3.00328,3.00328 0 0 0 3,-3 V 272.14611 a 3.00328,3.00328 0 0 0 -3,-3 z"
       id="path28"
       style="fill:#ffffff" />
    <rect
       x="382.82956"
       y="610.41113"
       width="75.309593"
       height="31.47267"
       rx="4"
       id="rect30"
       style="fill:#00b4c4;fill-opacity:1" />
    <path
       d="m 644.52086,413.31043 c 0,0 -2.76836,17.533 0,20.30134 2.76836,2.76834 -17.533,25.838 -17.533,25.838 l -16.61018,-23.06969 c 0,0 7.38231,-11.99624 4.61394,-22.14691 z"
       id="path34"
       style="fill:#ffb8b8" />
    <polygon
       points="640.829,595.459 638.98,680.355 666.664,681.279 668.513,587.155 671.756,455.695 583.621,457.039 571.62,585.306 576.23,684.967 598.377,678.508 599.304,588.998 625.145,511.485 "
       id="polygon36"
       style="fill:#003f45;fill-opacity:1"
       transform="translate(0,88.228882)" />
    <path
       d="m 639.90692,765.81531 v 20.30133 c 0,0 -4.61392,14.76461 10.15067,13.84179 14.76459,-0.92282 13.84181,-7.3823 13.84181,-7.3823 l -5.53672,-24.91527 z"
       id="path38"
       style="fill:#00b4c4;fill-opacity:1" />
    <path
       d="m 597.45869,765.81531 v 20.30133 c 0,0 4.61393,14.76461 -10.15067,13.84182 -14.7646,-0.92279 -13.84182,-7.3823 -13.84182,-7.3823 l 5.53673,-24.91527 z"
       id="path40"
       style="fill:#00b4c4;fill-opacity:1" />
    <circle
       cx="628.8335"
       cy="402.23694"
       r="21.224119"
       id="circle42"
       style="fill:#ffb8b8" />
    <path
       d="m 627.91068,449.29911 1.84558,-9.22788 h 4.61394 l 8.9225,-12.83445 7.68768,7.29772 1.84557,43.371 h -49.83054 l 4.61394,-46.13939 6.71934,-4.52936 c 0,0 -1.18261,15.60281 11.73642,15.60281 z"
       id="path44"
       style="fill:#575a89" />
    <path
       d="m 608.53214,439.14843 c 0,0 7.64172,9.67444 19.04686,8.98977 11.40514,-0.68467 22.47859,-9.91256 22.47859,-9.91256 L 665.745,558.18806 c 0,0 -17.533,1.84558 -23.06969,-7.3823 l -42.44824,-0.92279 0.92279,-111.65732 z"
       id="path46"
       style="fill:#d0cde1" />
    <path
       d="m 614.762,425.64523 -40.373,19.96273 10.15067,57.21284 c 0,0 3.69115,21.22412 0,29.52921 -3.69115,8.30509 -7.38231,63.67235 -7.38231,63.67235 0,0 41.52545,4.61394 35.98873,-60.904 -5.53672,-65.51794 1.61591,-109.47313 1.61591,-109.47313 z"
       id="path48"
       style="fill:#00b4c4;fill-opacity:1" />
    <path
       d="m 590.07638,563.72479 5.53673,5.53673 c 0,0 16.61018,28.60642 23.99248,18.45575 7.3823,-10.15067 -12.919,-27.68363 -12.919,-27.68363 l -9.22787,-7.3823 z"
       id="path50"
       style="fill:#ffb8b8" />
    <path
       d="m 643.31375,425.64523 39.9642,19.96273 -13.84182,68.28629 c 0,0 0.92279,22.14691 5.53673,34.14315 4.61394,11.99624 2.76836,47.06217 2.76836,47.06217 0,0 -5.53673,21.22412 -17.533,-31.37478 -11.99627,-52.5989 -16.89447,-138.07956 -16.89447,-138.07956 z"
       id="path52"
       style="fill:#00b4c4;fill-opacity:1" />
    <path
       d="M 674.05007,530.50443 H 665.745 c 0,0 -27.68363,-3.69115 -25.83806,7.3823 1.84557,11.07345 27.68364,8.30509 27.68364,8.30509 l 10.15066,-0.92278 z"
       id="path54"
       style="fill:#ffb8b8" />
    <path
       d="m 579.92572,442.83959 -6.45952,2.76837 c 0,0 -6.45951,13.84181 -7.3823,18.45575 -0.92279,4.61394 -11.99624,59.98121 -9.2279,66.44072 2.76834,6.45951 30.452,40.60266 30.452,40.60266 l 15.68739,-16.61018 -23.06967,-31.37478 6.45951,-39.67988 z"
       id="path56"
       style="fill:#00b4c4;fill-opacity:1" />
    <path
       d="m 669.43613,443.76243 12.20966,1.03029 2.55495,0.81529 c 0,0 25.838,70.13187 20.30133,81.20532 -5.53667,11.07345 -29.52921,31.37478 -29.52921,31.37478 l -6.45952,-28.60642 11.99624,-11.07345 -11.99624,-36.91151 z"
       id="path58"
       style="fill:#00b4c4;fill-opacity:1" />
    <path
       d="m 646.79006,385.87143 c 0,0 5.55251,-10.41917 -6.663,-11.36636 0,0 -11.105,-6.63038 -19.989,0.94719 0,0 -7.77351,-1.89439 -9.99452,3.78879 0,0 -1.1105,-2.84159 2.221,-4.736 0,0 -7.77352,-1.8944 -7.77352,7.57757 0,0 -3.3315,9.472 0,17.99674 3.3315,8.52474 4.442,9.472 4.442,9.472 0,0 -5.47461,-17.87294 7.85141,-18.82013 13.32602,-0.94719 28.2399,-9.12218 29.3504,1.297 1.1105,10.41918 3.33151,13.26075 3.33151,13.26075 0,0 9.9945,-15.15517 -2.77628,-19.41755 z"
       id="path60"
       style="fill:#2f2e41" />
  </g>
</svg>
