<?xml version="1.0" encoding="UTF-8" standalone="no"?>
<svg
   xmlns:dc="http://purl.org/dc/elements/1.1/"
   xmlns:cc="http://creativecommons.org/ns#"
   xmlns:rdf="http://www.w3.org/1999/02/22-rdf-syntax-ns#"
   xmlns:svg="http://www.w3.org/2000/svg"
   xmlns="http://www.w3.org/2000/svg"
   version="1.1"
   viewBox="0 0 1000 1000"
   height="1000"
   width="1000"
   data-name="Layer 1"
   id="af24c1d2-8586-4e6b-81b3-4cf1a6f0777f">
  <metadata
     id="metadata89">
    <rdf:RDF>
      <cc:Work
         rdf:about="">
        <dc:format>image/svg+xml</dc:format>
        <dc:type
           rdf:resource="http://purl.org/dc/dcmitype/StillImage" />
        <dc:title>shared_workspace</dc:title>
      </cc:Work>
    </rdf:RDF>
  </metadata>
  <defs
     id="defs87" />
  <title
     id="title2">shared_workspace</title>
  <g
     transform="translate(34.06662,-281.6024)"
     id="g890">
    <path
       d="m 470.79186,926.34089 c 14.37595,15.42642 15.119,38.1 15.119,38.1 0,0 -22.565,-2.33763 -36.94091,-17.764 -14.37591,-15.42637 -15.119,-38.1 -15.119,-38.1 0,0 22.56495,2.33758 36.94091,17.764 z"
       id="path4"
       style="fill:#00c334;fill-opacity:1" />
    <path
       d="m 516.04888,950.4198 c -15.42642,14.376 -38.1,15.119 -38.1,15.119 0,0 2.33763,-22.56495 17.764,-36.94091 15.42637,-14.37596 38.1,-15.119 38.1,-15.119 0,0 -2.33753,22.56491 -17.764,36.94091 z"
       id="path6"
       style="fill:#00c334;fill-opacity:1" />
    <path
       d="m 512.21492,996.2048 h -56.73914 a 5.8034,5.8034 0 0 1 -5.21862,-3.26461 l -12.35345,-25.3932 a 5.8034,5.8034 0 0 1 5.21864,-8.34219 h 81.446 a 5.8034,5.8034 0 0 1 5.21862,8.34219 l -12.35345,25.3932 a 5.8034,5.8034 0 0 1 -5.2186,3.26461 z"
       id="path8"
       style="fill:#003f45;fill-opacity:1" />
    <circle
       cx="767.02734"
       cy="639.2746"
       r="47.243511"
       id="circle10"
       style="fill:#ffb8b8" />
    <path
       d="m 731.76585,662.89635 c 0,0 8.90094,67.09951 -4.7928,74.631 -13.69374,7.53149 81.47795,8.21627 81.47795,8.21627 0,0 -21.22534,-58.19851 -11.63973,-76.00045 z"
       id="path12"
       style="fill:#ffb8b8" />
    <path
       d="m 877.94611,746.08306 -7.915,36.04167 -16.73591,76.25281 -0.50113,4.176 -5.77572,48.34458 -3.84186,32.11625 -2.57625,21.5736 c -15.663,8.04992 -27.01516,13.60716 -27.01516,13.60716 0,0 -0.97654,-4.89549 -2.55056,-11.15941 -10.99237,3.29579 -31.33243,8.76307 -48.56947,9.85521 6.27678,6.99633 9.16139,13.56862 5.24883,18.41917 -11.8083,14.6222 -60.55768,-16.01 -77.60838,-27.43277 a 46.15393,46.15393 0 0 0 -0.44973,8.26194 l -13.04823,-10.03512 1.29134,-23.08978 2.17793,-39.0676 2.73686,-48.99351 a 51.43841,51.43841 0 0 1 -2.16511,-6.44379 c -3.996,-14.21107 -8.84656,-42.58827 -12.56639,-66.38474 -2.99381,-19.15154 -5.2424,-35.33494 -5.71781,-38.77849 -0.0643,-0.44972 -0.0964,-0.681 -0.0964,-0.681 l 72.231,-31.91713 c 5.13324,11.90468 29.10318,15.48315 29.10318,15.48315 19.85822,-1.36843 35.42486,-11.84041 35.42486,-11.84041 z"
       id="path14"
       style="fill:#00b4c4;fill-opacity:1" />
    <path
       d="m 819.06523,964.50445 c 0,0 -3.05809,1.0472 -8.03067,2.53127 -10.99237,3.29579 -31.33243,8.76307 -48.56947,9.85521 -14.8407,0.95086 -27.38137,-1.33627 -29.67493,-11.01805 -0.983,-4.16313 0.41118,-7.58738 3.45,-10.40133 9.07144,-8.40973 32.76513,-11.42284 51.5569,-12.45718 5.30667,-0.28911 10.215,-0.424 14.301,-0.47541 6.93849,-0.09 11.48707,0.0514 11.48707,0.0514 l 0.10921,0.424 z"
       id="path16"
       style="fill:#ffb8b8" />
    <path
       d="m 727.72511,594.58659 -8.83338,-3.5364 c 0,0 18.46975,-20.33416 44.167,-18.5659 l -7.22751,-7.95692 c 0,0 17.66676,-7.07268 33.72744,11.49321 8.44279,9.75966 18.21118,21.23169 24.30075,34.15476 h 9.45994 l -3.94822,8.69355 13.8188,8.69355 -14.18358,-1.56155 a 48.58061,48.58061 0 0 1 0.3849,14.41987 18.65731,18.65731 0 0 1 -6.83212,12.20528 v 0 c 0,0 -10.955,-22.67579 -10.955,-26.21219 v 8.841 c 0,0 -8.83338,-7.95681 -8.83338,-13.26134 l -4.81816,6.18866 -2.40908,-9.72508 -29.71221,9.72508 4.81815,-7.95682 -18.46975,2.65227 7.22751,-9.72509 c 0,0 -20.87883,11.49321 -21.682,21.2183 -0.80293,9.72494 -6.91426,18.94 -6.91426,18.94 0,0 -16.37381,-45.4629 6.91416,-58.72424 z"
       id="path18"
       style="fill:#2f2e41" />
    <path
       d="m 929.29745,911.77828 c -4.812,5.21672 -16.7359,13.07391 -31.1911,21.58 -5.3774,3.1609 -11.1017,6.41815 -16.94154,9.6561 -13.93482,7.72873 -28.525,15.38677 -40.56453,21.5736 -15.663,8.04992 -27.01516,13.60716 -27.01516,13.60716 0,0 -0.97654,-4.89549 -2.55056,-11.15941 -2.10723,-8.384 -5.28095,-19.22224 -8.5896,-24.02135 -0.11564,-0.16705 -0.23128,-0.32123 -0.34691,-0.47541 -0.96368,-1.26565 -1.93379,-2.00445 -2.891,-2.00445 l 47.8113,-29.6364 20.66133,-12.81052 -14.88568,-35.53411 -18.66965,-44.57343 11.26866,-35.85533 11.32646,-36.04167 h 21.22665 c 0,0 7.02843,15.3418 16.01633,36.73553 1.3428,3.19941 2.7305,6.53374 4.1439,9.97729 18.4898,44.97174 41.541,107.77158 31.1911,118.9824 z"
       id="path20"
       style="fill:#00b4c4;fill-opacity:1" />
    <path
       d="m 767.71392,995.3101 c -11.8083,14.6222 -60.55768,-16.01 -77.60838,-27.43277 -3.7134,-2.48629 -5.92344,-4.06031 -5.92344,-4.06031 l 15.59879,-20.80265 4.94047,-6.58515 c 0,0 4.42008,2.345 10.95382,6.16115 0.23771,0.14132 0.47541,0.28268 0.71955,0.424 5.63433,3.30865 12.70775,7.63235 19.8454,12.45718 9.84882,6.66224 19.80685,14.26248 26.225,21.41938 6.27674,6.99633 9.16135,13.56862 5.24879,18.41917 z"
       id="path22"
       style="fill:#ffb8b8" />
    <path
       d="m 715.67518,942.59037 a 30.69786,30.69786 0 0 0 -5.20385,0.424 c -14.77,2.5377 -19.12586,15.90716 -20.36579,24.863 a 46.15393,46.15393 0 0 0 -0.44973,8.26194 l -13.04823,-10.03512 -4.75413,-3.65556 c -11.44213,-3.98965 -21.63787,-11.07589 -30.478,-19.43422 a 153.2131,153.2131 0 0 1 -20.52639,-24.34261 214.67612,214.67612 0 0 1 -15.88148,-27.24 20.03409,20.03409 0 0 1 -0.27625,-16.99291 l 16.15773,-36.00951 23.61659,-52.62982 q 0.26016,-1.87914 0.57176,-3.67482 c 4.68351,-26.85455 17.23061,-38.77849 17.23061,-38.77849 h 9.58543 l 6.41168,38.77849 7.9664,48.17759 -5.58293,18.20715 -12.90044,42.04855 12.32869,13.38877 z"
       id="path24"
       style="fill:#00b4c4;fill-opacity:1" />
    <path
       d="m 726.52386,830.3408 8.19442,9.56022 c 3.04445,-0.58046 6.22372,-1.26259 9.49825,-2.02864 l -2.35359,-7.53158 5.75478,6.71392 c 34.69082,-8.53229 77.68983,-25.12082 77.68983,-25.12082 0,0 -46.42186,3.40385 -81.08294,-4.16863 -15.33585,-3.35046 -31.1145,4.25182 -37.4077,18.63269 -3.65786,8.35873 -3.08339,15.60054 9.88993,15.60054 a 85.688,85.688 0 0 0 13.07567,-1.2299 z"
       id="path26"
       style="fill:#6c63ff" />
    <path
       d="m 913.33245,987.47216 v 3.8997 a 8.57062,8.57062 0 0 1 -0.5846,3.12875 8.79588,8.79588 0 0 1 -0.6232,1.2849 8.633,8.633 0 0 1 -7.4204,4.21449 h -286.8876 a 8.6329,8.6329 0 0 1 -7.42033,-4.21449 8.79181,8.79181 0 0 1 -0.62316,-1.2849 8.57062,8.57062 0 0 1 -0.58465,-3.12875 v -3.8997 a 8.62584,8.62584 0 0 1 8.62814,-8.62814 h 16.53675 v -1.81816 a 0.35918,0.35918 0 0 1 0.35977,-0.35977 h 8.62818 a 0.35918,0.35918 0 0 1 0.35977,0.35977 v 1.81816 h 5.39016 v -1.81816 a 0.35918,0.35918 0 0 1 0.35977,-0.35977 h 8.62819 a 0.35918,0.35918 0 0 1 0.35977,0.35977 v 1.81816 h 5.39659 v -1.81816 a 0.35918,0.35918 0 0 1 0.35977,-0.35977 h 8.62814 a 0.35919,0.35919 0 0 1 0.35978,0.35977 v 1.81816 h 5.39019 v -1.81816 a 0.35918,0.35918 0 0 1 0.35977,-0.35977 h 8.62815 a 0.35918,0.35918 0 0 1 0.35977,0.35977 v 1.81816 h 5.3902 v -1.81816 a 0.35918,0.35918 0 0 1 0.35977,-0.35977 h 8.62821 a 0.35918,0.35918 0 0 1 0.35977,0.35977 v 1.81816 h 5.39662 v -1.81816 a 0.35919,0.35919 0 0 1 0.35978,-0.35977 h 8.62814 a 0.35919,0.35919 0 0 1 0.35978,0.35977 v 1.81816 h 5.39019 v -1.81816 a 0.35918,0.35918 0 0 1 0.35977,-0.35977 h 67.58612 a 0.35919,0.35919 0 0 1 0.35978,0.35977 v 1.81816 h 5.39658 v -1.81816 a 0.35918,0.35918 0 0 1 0.35977,-0.35977 h 8.62819 a 0.36334,0.36334 0 0 1 0.35977,0.35977 v 1.81816 h 5.39016 v -1.81816 a 0.35918,0.35918 0 0 1 0.35977,-0.35977 h 8.62815 a 0.35919,0.35919 0 0 1 0.35981,0.35977 v 1.81816 h 5.39015 v -1.81816 a 0.35919,0.35919 0 0 1 0.35978,-0.35977 h 8.62814 a 0.35919,0.35919 0 0 1 0.35978,0.35977 v 1.81816 h 5.39662 v -1.81816 a 0.35918,0.35918 0 0 1 0.35977,-0.35977 h 8.62815 a 0.35786,0.35786 0 0 1 0.35334,0.35977 v 1.81816 h 5.39663 v -1.81816 a 0.35918,0.35918 0 0 1 0.35977,-0.35977 h 8.62815 a 0.35918,0.35918 0 0 1 0.35977,0.35977 v 1.81816 h 5.39019 v -1.81816 a 0.35919,0.35919 0 0 1 0.35978,-0.35977 h 8.62814 a 0.35918,0.35918 0 0 1 0.35977,0.35977 v 1.81816 h 25.16492 a 8.62585,8.62585 0 0 1 8.6281,8.62814 z"
       id="path28"
       style="fill:#003f45;fill-opacity:1" />
    <path
       d="M 890.23255,823.2421 H 783.30073 v -2.204 h -48.487 v 2.204 H 627.44106 a 7.23313,7.23313 0 0 0 -7.23313,7.23314 V 976.8978 a 7.23315,7.23315 0 0 0 7.23313,7.23316 h 262.79149 a 7.23315,7.23315 0 0 0 7.2331,-7.23316 V 830.47524 a 7.23313,7.23313 0 0 0 -7.2331,-7.23314 z"
       id="path30"
       style="fill:#003f45;fill-opacity:1" />
    <circle
       cx="759.04724"
       cy="874.36182"
       r="16.06134"
       stroke-miterlimit="10"
       id="circle32"
       style="fill:none;stroke:#ffffff;stroke-width:2;stroke-miterlimit:10;stroke-opacity:1" />
    <circle
       cx="753.90759"
       cy="880.14386"
       r="16.06134"
       id="circle34"
       style="fill:#ffffff;fill-opacity:1" />
    <circle
       cx="282.31137"
       cy="728.90979"
       r="23.38258"
       id="circle36"
       style="fill:#2f2e41" />
    <path
       d="m 288.82582,706.17087 a 23.38583,23.38583 0 0 1 20.58382,34.47973 23.377,23.377 0 1 0 -38.83913,-25.68688 23.32489,23.32489 0 0 1 18.25531,-8.79285 z"
       id="path38"
       style="fill:#2f2e41" />
    <circle
       cx="238.61766"
       cy="660.17395"
       r="68.686317"
       id="circle40"
       style="fill:#2f2e41" />
    <path
       d="m 184.71006,617.55737 a 68.674,68.674 0 0 1 95.19052,-7.2019 c -0.56166,-0.53391 -1.11739,-1.07215 -1.701,-1.591 a 68.68632,68.68632 0 0 0 -91.27085,102.66876 c 0.58363,0.51883 1.18326,1.00769 1.77929,1.50294 a 68.674,68.674 0 0 1 -3.99796,-95.3788 z"
       id="path42"
       style="fill:#2f2e41" />
    <circle
       cx="238.03557"
       cy="684.03955"
       r="44.23864"
       id="circle44"
       style="fill:#a0616a" />
    <path
       d="m 206.60285,698.00964 c 0,0 5.82087,53.552 -3.49253,59.37292 -9.3134,5.82092 53.55205,13.9701 53.55205,13.9701 0,0 -9.3134,-58.20875 13.9701,-73.343 z"
       id="path46"
       style="fill:#a0616a" />
    <path
       d="m 262.48324,748.06916 c 0,0 17.335,-8.095 -7.631,-5.21169 -24.966,2.88331 -46.50585,-8.17632 -46.50585,-8.17632 0,0 -7.56447,-7.56714 -8.72864,0.58209 -1.16417,8.14923 3.49252,23.28349 -22.11932,25.61184 -25.61184,2.32835 -48.89535,-4.6567 -58.20874,12.80593 -9.31339,17.46263 -4.6567,93.134 -4.6567,93.134 0,0 17.46262,62.86545 31.43272,72.17884 13.9701,9.31339 136.20845,-3.49252 136.20845,-3.49252 l 34.92525,-62.86544 v -73.343 c 0,0 -4.6567,-25.61184 -37.2536,-18.6268 0,0 -20.95514,-4.65669 -19.791,-15.13427 1.16414,-10.47758 2.32843,-17.46266 2.32843,-17.46266 z"
       id="path48"
       style="fill:#00b4c4;fill-opacity:1" />
    <path
       d="m 150.68584,983.48251 c 0.71954,-3.13517 1.20138,-4.90835 1.20138,-4.90835 l -0.37259,-2.55052 -3.83547,-26.04506 -1.61256,-10.986 c 13.96693,-5.82062 17.46188,-32.59808 17.46188,-32.59808 l 0.52682,-0.3148 2.38351,-1.42627 v -0.006 l 8.55754,-5.13324 0.17344,-0.10277 3.4564,2.3 7.022,4.68348 a 82.57225,82.57225 0 0 0 65.02274,14.8985 71.58121,71.58121 0 0 0 15.30325,-4.42009 l 16.93506,-5.64715 0.52682,-0.17348 0.52039,0.0771 9.93234,1.50335 0.17987,0.0321 0.82236,0.12207 -2.3,15.90072 -3.33433,23.109 c 8.80805,4.66422 16.63956,13.42729 23.4881,24.22694 q 2.27427,3.58485 4.40722,7.45887 c 1.85027,3.34077 3.617,6.81642 5.30024,10.37564 0.20559,0.424 0.40475,0.85448 0.60391,1.28491 0.64888,1.39411 1.29134,2.80109 1.91454,4.21449 H 147.60207 c 0.23127,-1.41983 0.46255,-2.7754 0.68743,-4.0796 a 0.995,0.995 0 0 0 0.0257,-0.13489 c 0.0835,-0.43686 0.16062,-0.86091 0.23128,-1.28491 0.78381,-4.24016 1.54189,-7.78005 2.13938,-10.37559 z"
       id="path50"
       style="fill:#2f2e41" />
    <path
       d="m 143.73741,759.71091 c 0,0 12.80594,23.28349 8.14922,52.38789 -4.65672,29.1044 13.9701,101.28321 13.9701,101.28321 l 13.9701,-3.49253 c 0,0 -9.3134,-60.53709 -6.98505,-74.50719 2.32835,-13.9701 2.32835,-68.68631 -9.3134,-75.67136 -11.64175,-6.98505 -19.79097,-2e-5 -19.79097,-2e-5 z"
       id="path52"
       style="fill:#2f2e41" />
    <path
       d="m 279.127,783.90713 4.89348,128.89277 9.3134,5.82087 c 0,0 13.388,-141.44724 6.403,-141.44724 h -14.21275 a 6.40554,6.40554 0 0 0 -6.39713,6.7336 z"
       id="path54"
       style="fill:#2f2e41" />
    <circle
       cx="172.25969"
       cy="904.6507"
       r="5.8208699"
       id="circle56"
       style="fill:#6c63ff" />
    <circle
       cx="288.67719"
       cy="910.47156"
       r="5.8208699"
       id="circle58"
       style="fill:#6c63ff" />
    <polygon
       points="269.818,109.775 277.035,109.775 277.035,65.536 200.2,65.536 200.2,109.775 210.445,109.775 223.483,95.805 221.737,109.775 267.024,109.775 264.23,95.805 "
       id="polygon60"
       style="fill:#2f2e41"
       transform="translate(0,563.2048)" />
    <ellipse
       cx="193.21484"
       cy="674.72614"
       rx="3.4925201"
       ry="6.4029598"
       id="ellipse62"
       style="fill:#a0616a" />
    <ellipse
       cx="282.85629"
       cy="674.72614"
       rx="3.4925201"
       ry="6.4029598"
       id="ellipse64"
       style="fill:#a0616a" />
    <path
       d="m 306.72189,909.88946 c 0,0 -52.97,-9.89548 -56.46248,7.56714 -3.49248,17.46262 58.79083,9.89549 58.79083,9.89549 z"
       id="path66"
       style="fill:#a0616a" />
    <path
       d="m 305.55771,789.97945 c 0,0 126.89506,101.28322 103.61156,125.73089 -23.2835,24.44767 -111.76078,17.46262 -111.76078,17.46262 l 5.82087,-29.10437 51.2237,-5.82088 -25.61185,-25.61184 -23.2835,2.32835 z"
       id="path68"
       style="fill:#00b4c4;fill-opacity:1" />
    <path
       d="m 118.12556,958.7848 16.29845,12.80592 c 0,0 11.64175,36.08938 29.10437,25.61185 C 180.991,986.725 147.22993,949.4714 147.22993,949.4714 l -19.791,-6.98505 z"
       id="path70"
       style="fill:#a0616a" />
    <path
       d="m 134.42401,771.35266 -16.2545,4.89151 c 0,0 -112.96891,83.58577 -117.62561,106.86927 -4.6567,23.2835 22.11932,36.08942 22.11932,36.08942 l 101.28321,47.73117 10.47758,-27.9402 -47.73117,-24.44767 c 0,0 3.49252,-6.98505 -10.47757,-8.14922 -13.97009,-1.16417 -16.29845,-16.29845 -16.29845,-16.29845 0,0 27.94019,-43.07447 43.07447,-33.76107 15.13428,9.3134 19.791,16.29845 19.791,16.29845 z"
       id="path72"
       style="fill:#00b4c4;fill-opacity:1" />
    <path
       d="m 366.26112,987.47216 v 3.8997 a 8.5704,8.5704 0 0 1 -0.58462,3.12875 8.79,8.79 0 0 1 -0.6232,1.2849 A 8.63285,8.63285 0 0 1 357.63297,1000 H 70.74535 a 8.6329,8.6329 0 0 1 -7.42033,-4.21449 8.794,8.794 0 0 1 -0.6232,-1.2849 8.57123,8.57123 0 0 1 -0.58462,-3.12875 v -3.8997 a 8.62585,8.62585 0 0 1 8.62815,-8.62814 H 87.2821 v -1.81816 a 0.35918,0.35918 0 0 1 0.35977,-0.35977 h 8.62815 a 0.35918,0.35918 0 0 1 0.35977,0.35977 v 1.81816 h 5.39019 v -1.81816 a 0.35919,0.35919 0 0 1 0.35978,-0.35977 h 8.62814 a 0.35918,0.35918 0 0 1 0.35977,0.35977 v 1.81816 h 5.39668 v -1.81816 a 0.35918,0.35918 0 0 1 0.35977,-0.35977 h 8.62815 a 0.35918,0.35918 0 0 1 0.35977,0.35977 v 1.81816 h 5.3902 v -1.81816 a 0.35918,0.35918 0 0 1 0.35977,-0.35977 h 8.62815 a 0.35918,0.35918 0 0 1 0.35977,0.35977 v 1.81816 h 5.39019 v -1.81816 a 0.35918,0.35918 0 0 1 0.35977,-0.35977 h 8.62815 a 0.35918,0.35918 0 0 1 0.35977,0.35977 v 1.81816 h 5.39654 v -1.81816 a 0.35918,0.35918 0 0 1 0.35977,-0.35977 h 8.62823 a 0.35918,0.35918 0 0 1 0.35977,0.35977 v 1.81816 h 5.3902 v -1.81816 a 0.35918,0.35918 0 0 1 0.35977,-0.35977 h 67.58612 a 0.35918,0.35918 0 0 1 0.35977,0.35977 v 1.81816 h 5.39659 v -1.81816 a 0.35918,0.35918 0 0 1 0.35977,-0.35977 h 8.62815 a 0.36332,0.36332 0 0 1 0.35977,0.35977 v 1.81816 h 5.39019 v -1.81816 a 0.35919,0.35919 0 0 1 0.35978,-0.35977 h 8.62812 a 0.35918,0.35918 0 0 1 0.35977,0.35977 v 1.81816 h 5.3902 v -1.81816 a 0.35918,0.35918 0 0 1 0.35977,-0.35977 h 8.62815 a 0.35918,0.35918 0 0 1 0.35977,0.35977 v 1.81816 h 5.39663 v -1.81816 a 0.35918,0.35918 0 0 1 0.35977,-0.35977 h 8.62814 a 0.35787,0.35787 0 0 1 0.35335,0.35977 v 1.81816 h 5.39662 v -1.81816 a 0.35918,0.35918 0 0 1 0.35977,-0.35977 h 8.62815 a 0.35918,0.35918 0 0 1 0.35977,0.35977 v 1.81816 h 5.3902 v -1.81816 a 0.35918,0.35918 0 0 1 0.35977,-0.35977 h 8.62817 a 0.35918,0.35918 0 0 1 0.35977,0.35977 v 1.81816 h 25.16489 a 8.62581,8.62581 0 0 1 8.62811,8.62814 z"
       id="path74"
       style="fill:#003f45;fill-opacity:1" />
    <path
       d="M 343.1601,823.23908 H 236.22827 v -2.204 h -48.48705 v 2.204 H 80.3686 a 7.23313,7.23313 0 0 0 -7.23313,7.23313 V 976.8948 a 7.23315,7.23315 0 0 0 7.23313,7.23316 h 262.7915 a 7.23315,7.23315 0 0 0 7.23313,-7.23316 V 830.47221 a 7.23313,7.23313 0 0 0 -7.23313,-7.23313 z"
       id="path76"
       style="fill:#003f45;fill-opacity:1" />
    <circle
       cx="211.97478"
       cy="874.35876"
       r="16.06134"
       stroke-miterlimit="10"
       id="circle78"
       style="fill:none;stroke:#ffffff;stroke-width:2;stroke-miterlimit:10;stroke-opacity:1" />
    <circle
       cx="206.83514"
       cy="880.14087"
       r="16.06134"
       id="circle80"
       style="fill:#ffffff;fill-opacity:1" />
  </g>
</svg>
